<svg width="387" height="339" viewBox="0 0 387 339" fill="none" xmlns="http://www.w3.org/2000/svg">
<path d="M260.793 43.561C275.703 64.009 275.277 97.4501 293.382 125.992C311.7 154.321 348.549 177.538 352.809 200.968C357.069 224.398 328.74 248.041 304.458 274.24C280.176 300.652 259.941 329.407 236.298 328.342C212.442 327.277 185.178 296.179 157.701 281.056C130.437 265.72 103.173 266.359 75.9087 255.283C48.8577 244.42 22.0197 221.842 8.81373 191.596C-4.39227 161.563 -3.96627 123.649 18.3987 104.479C40.5507 85.096 84.4287 84.457 115.953 71.464C147.264 58.471 166.221 33.55 190.929 24.604C215.424 15.658 245.883 23.113 260.793 43.561Z" fill="#DFE3FF"/>
<g clip-path="url(#clip0_1719_8486)">
<path d="M317.828 48.2693C321.218 48.9202 324.494 46.6999 325.145 43.3101C325.796 39.9202 323.576 36.6445 320.186 35.9936C316.796 35.3426 313.52 37.563 312.869 40.9528C312.218 44.3426 314.439 47.6184 317.828 48.2693Z" fill="#6246EA"/>
<path d="M307.05 58.9279L323.892 62.1621C324.623 62.2694 325.367 62.0833 325.962 61.6443C326.556 61.2053 326.953 60.549 327.066 59.8186L327.217 59.0329C327.426 58.059 327.378 57.0474 327.079 56.0974C326.779 55.1473 326.238 54.2914 325.508 53.6135C323.273 51.5747 320.545 50.1556 317.592 49.4968C314.613 49.0012 311.557 49.2917 308.724 50.3396C307.795 50.699 306.975 51.2936 306.345 52.0651C305.715 52.8366 305.296 53.7586 305.13 54.7407L304.979 55.5264C304.889 55.8858 304.872 56.2593 304.928 56.6255C304.984 56.9916 305.112 57.3431 305.304 57.6594C305.497 57.9758 305.75 58.2508 306.05 58.4686C306.349 58.6863 306.689 58.8424 307.05 58.9279Z" fill="#6246EA"/>
<path d="M296.212 74.6663C299.602 75.3172 302.878 73.0969 303.529 69.707C304.18 66.3172 301.959 63.0415 298.569 62.3906C295.18 61.7396 291.904 63.9599 291.253 67.3498C290.602 70.7396 292.822 74.0153 296.212 74.6663Z" fill="#6246EA"/>
<path d="M303.888 80.035C301.645 78.0126 298.913 76.6105 295.963 75.9675C292.984 75.4719 289.927 75.7624 287.095 76.8103C286.165 77.1697 285.346 77.7643 284.716 78.5358C284.086 79.3073 283.667 80.2293 283.5 81.2114L283.349 81.997C283.191 82.7143 283.32 83.4652 283.71 84.0877C284.1 84.7103 284.719 85.1546 285.434 85.3249L302.276 88.5591C303.008 88.6664 303.752 88.4803 304.346 88.0413C304.941 87.6023 305.338 86.946 305.45 86.2156L305.601 85.4299C305.805 84.4593 305.754 83.4524 305.454 82.507C305.154 81.5617 304.614 80.7101 303.888 80.035Z" fill="#6246EA"/>
<path d="M328.129 80.7952C331.519 81.4461 334.795 79.2258 335.446 75.836C336.097 72.4461 333.876 69.1704 330.486 68.5195C327.097 67.8685 323.821 70.0888 323.17 73.4787C322.519 76.8685 324.739 80.1442 328.129 80.7952Z" fill="#6246EA"/>
<path d="M335.805 86.1638C333.562 84.1414 330.83 82.7393 327.88 82.0963C324.901 81.6007 321.844 81.8912 319.012 82.9391C318.082 83.2985 317.263 83.8931 316.633 84.6646C316.002 85.4361 315.584 86.3581 315.417 87.3402L315.266 88.1259C315.108 88.8432 315.237 89.594 315.627 90.2165C316.017 90.8391 316.636 91.2834 317.351 91.4537L334.193 94.6879C334.925 94.7952 335.669 94.6091 336.263 94.1701C336.858 93.7311 337.255 93.0748 337.367 92.3444L337.518 91.5588C337.722 90.5881 337.671 89.5812 337.371 88.6359C337.071 87.6905 336.531 86.839 335.805 86.1638ZM315 62.9998C314.674 62.9373 314.337 63.0066 314.063 63.1926C313.788 63.3786 313.599 63.6661 313.536 63.9916L312.235 70.7678L305.692 74.2208C305.427 74.3889 305.236 74.6501 305.155 74.9527C305.074 75.2552 305.11 75.5771 305.255 75.8546C305.4 76.1321 305.644 76.345 305.939 76.4512C306.234 76.5574 306.557 76.5492 306.846 76.4281L313.048 73.1641L317.6 78.4931C317.701 78.6335 317.83 78.7514 317.979 78.8392C318.128 78.9271 318.294 78.983 318.466 79.0034C318.638 79.0239 318.812 79.0084 318.978 78.958C319.143 78.9076 319.297 78.8233 319.428 78.7106C319.559 78.5978 319.666 78.459 319.741 78.3029C319.816 78.1469 319.857 77.977 319.863 77.804C319.869 77.631 319.839 77.4587 319.774 77.298C319.71 77.1372 319.613 76.9916 319.49 76.8704L314.69 71.2393L315.992 64.4631C316.054 64.1375 315.985 63.8004 315.799 63.526C315.613 63.2516 315.325 63.0623 315 62.9998Z" fill="#6246EA"/>
</g>
<g clip-path="url(#clip1_1719_8486)">
<path d="M269.612 292.244C271.983 288.665 272.986 284.135 272.06 279.569C270.206 270.439 261.32 264.551 252.189 266.405L244.597 267.946L242.34 268.404C237.774 269.331 234.045 272.011 231.623 275.601C231.05 276.465 230.54 277.37 230.142 278.305C228.837 281.347 228.416 284.798 229.113 288.235C230.248 293.826 234.029 298.239 238.89 300.35C238.446 302.897 237.498 305.333 236.232 307.513C235.874 308.12 236.4 308.868 237.067 308.732C242.197 307.691 246.562 304.989 249.703 301.253L258.833 299.4C263.512 298.503 267.241 295.823 269.612 292.244Z" fill="#6246EA"/>
<path d="M296.586 294.62C296.347 293.44 295.954 292.291 295.509 291.153C294.031 287.821 291.549 285.067 288.475 283.341C285.03 281.37 280.922 280.601 276.767 281.445L275.946 281.612C276.257 286.035 275.058 290.391 272.615 294.145C269.528 298.671 264.979 301.784 259.644 302.867L253.848 304.044C255.125 309.286 258.792 313.402 263.479 315.442C266.532 316.798 270.033 317.209 273.573 316.49L281.473 314.887C285.341 317.894 290.375 319.275 295.536 318.388C293.334 316.485 291.561 314.067 290.455 311.247C291.878 310.104 293.158 308.776 294.139 307.295C296.5 303.664 297.513 299.185 296.586 294.62Z" fill="#6246EA"/>
</g>
<path d="M129.995 314.189C129.995 312.828 130.832 311.886 132.298 311.886H138.37C139.731 311.886 140.673 312.723 140.673 314.189V335.022C140.673 336.487 139.836 337.325 138.37 337.325H132.507C130.937 337.325 130.1 336.487 130.1 334.917V324.658C129.995 321.203 129.995 317.644 129.995 314.189ZM146.431 303.616C146.431 302.255 147.268 301.312 148.734 301.312H154.806C156.167 301.312 157.109 302.15 157.109 303.616C157.109 310.525 157.214 328.112 157.214 335.022C157.214 336.487 156.376 337.325 154.911 337.325H149.048C147.478 337.325 146.64 336.487 146.64 334.917V324.658C146.536 321.203 146.431 307.175 146.431 303.616ZM162.867 292.937C162.867 291.576 163.704 290.634 165.17 290.634H171.242C172.603 290.634 173.545 291.472 173.545 292.937C173.545 299.847 173.65 328.112 173.65 335.022C173.65 336.487 172.812 337.325 171.346 337.325H165.484C163.914 337.325 163.076 336.487 163.076 334.917V324.658C163.076 321.203 162.867 296.392 162.867 292.937ZM113.454 329.892V324.867C113.454 323.401 114.292 322.564 115.757 322.564H121.725C123.19 322.564 124.028 323.401 124.028 324.867V335.022C124.028 336.487 123.19 337.325 121.62 337.325H115.757C114.187 337.325 113.35 336.487 113.35 334.917C113.35 333.242 113.454 331.567 113.454 329.892Z" fill="#6246EA"/>
<path d="M158.679 275.978L158.365 293.042C158.365 293.356 158.261 293.566 158.156 293.775V294.089L158.051 293.984C157.528 294.508 156.69 294.717 156.062 294.089L153.026 290.53L152.084 289.902C144.442 302.673 122.772 311.048 113.769 306.023C113.14 305.605 113.35 304.558 114.187 304.558C129.053 304.453 142.139 293.775 145.908 285.819L140.673 284.667C139.522 284.248 139.417 282.678 140.464 282.155L140.987 281.841L148.629 277.653L155.434 273.989C156.9 273.152 158.784 274.198 158.679 275.978Z" fill="#6246EA"/>
<g clip-path="url(#clip2_1719_8486)">
<path d="M76.872 224.537L27.4447 213.035C24.7262 212.403 21.9844 214.109 21.3518 216.828L14.4506 246.484C13.818 249.203 15.5247 251.945 18.2432 252.577L67.6705 264.079C70.389 264.712 73.1308 263.005 73.7634 260.287L80.6646 230.63C81.2972 227.912 79.5905 225.17 76.872 224.537ZM76.2969 227.009C77.7797 227.354 78.5383 228.572 78.1932 230.055L77.1005 234.751C73.5085 233.394 71.233 229.738 71.3542 225.859L76.2969 227.009ZM62.9609 239.537C64.4437 239.882 65.2022 241.1 64.8572 242.583C64.5121 244.066 63.2935 244.824 61.8107 244.479C60.3279 244.134 59.5694 242.916 59.9144 241.433C60.2595 239.95 61.4781 239.191 62.9609 239.537ZM33.3045 232.635C34.7873 232.98 35.5458 234.199 35.2008 235.682C34.8557 237.165 33.6371 237.923 32.1543 237.578C30.6715 237.233 29.913 236.014 30.258 234.532C30.6031 233.049 31.8217 232.29 33.3045 232.635ZM26.8696 215.507L31.8123 216.657C30.2083 220.192 26.5525 222.467 22.7305 222.099L23.8231 217.403C24.1682 215.92 25.3868 215.162 26.8696 215.507ZM16.922 247.059L18.0722 242.117C21.6642 243.474 23.9397 247.129 23.761 251.256L18.8183 250.106C17.3354 249.761 16.5769 248.542 16.922 247.059ZM47.3509 237.207L48.5866 237.494C51.1154 237.822 52.6324 240.259 52.362 242.541C52.0915 244.823 49.5969 246.587 47.3151 246.316L47.0276 247.552C46.8551 248.294 46.2458 248.673 45.5044 248.5C44.7629 248.328 44.3837 247.718 44.5562 246.977L44.8438 245.741L42.3724 245.166C41.631 244.994 41.2517 244.384 41.4243 243.643C41.5968 242.902 42.2061 242.522 42.9475 242.695L47.396 243.73C48.3845 243.96 49.5456 243.449 49.8331 242.213C50.1207 240.977 49.5518 240.063 48.3161 239.776L47.0804 239.488C44.5515 239.16 43.0345 236.723 43.305 234.441C43.5754 232.16 46.0701 230.396 48.3518 230.666L48.5819 229.678C48.5073 228.879 49.1166 228.499 49.858 228.672C50.5994 228.844 50.9786 229.454 50.8061 230.195L50.5186 231.431L52.9899 232.006C53.7313 232.178 54.1106 232.788 53.9381 233.529C53.7655 234.271 53.1562 234.65 52.4148 234.477L47.9664 233.442C46.9778 233.212 45.8168 233.723 45.5292 234.959C45.2417 236.195 46.1152 236.919 47.3509 237.207ZM68.2456 261.608L63.3029 260.458C64.6598 256.866 68.3155 254.59 72.4422 254.769L71.2921 259.712C70.947 261.194 69.7284 261.953 68.2456 261.608Z" fill="#6246EA"/>
</g>
<g clip-path="url(#clip3_1719_8486)">
<path d="M199.534 28.3655C198.977 28.4584 198.411 28.4958 197.846 28.477C197.915 27.2241 197.847 25.9674 197.642 24.7293C197.48 23.7108 196.92 22.7985 196.085 22.1931C195.25 21.5877 194.209 21.3387 193.19 21.501C192.172 21.6633 191.26 22.2235 190.654 23.0584C190.049 23.8933 189.8 24.9345 189.962 25.953C190.285 27.1003 190.916 28.1374 191.786 28.9519C192.656 29.7665 193.732 30.3275 194.899 30.5742C194.69 31.4066 194.387 32.2124 193.995 32.9757C191.645 30.4723 188.81 28.4739 185.662 27.1023C182.515 25.7308 179.121 25.015 175.687 24.9985C176.646 23.947 177.344 22.6848 177.725 21.3137C179.292 20.9919 180.746 20.2603 181.938 19.1935C183.131 18.1267 184.019 16.7628 184.512 15.2409C185.005 13.719 185.086 12.0935 184.747 10.5301C184.407 8.96668 183.659 7.52131 182.578 6.34133C181.498 5.16135 180.124 4.28895 178.597 3.81309C177.069 3.33723 175.443 3.27491 173.883 3.6325C172.324 3.99008 170.887 4.75478 169.72 5.84863C168.552 6.94248 167.696 8.32636 167.237 9.85918C165.465 10.218 163.842 11.1011 162.578 12.3938C161.314 13.6865 160.467 15.3292 160.148 17.1089C159.829 18.8886 160.052 20.7231 160.788 22.3745C161.524 24.0259 162.74 25.418 164.277 26.3702C160.209 27.5614 156.437 29.5934 153.204 32.3345C151.462 31.4087 149.463 31.0815 147.517 31.4031C147.177 31.4572 146.873 31.6439 146.671 31.9222C146.469 32.2005 146.386 32.5476 146.44 32.8871C146.728 34.6579 147.539 36.3023 148.768 37.609C147.413 39.7672 146.554 42.1993 146.253 44.7298L145.716 44.8154C144.358 45.0318 143.141 45.7787 142.334 46.892C141.527 48.0052 141.195 49.3935 141.411 50.7514C141.63 52.1461 142.202 53.4617 143.073 54.5728C143.944 55.6839 145.084 56.5536 146.387 57.099L156.206 61.2309L157.271 67.9128C157.325 68.2522 157.512 68.5563 157.79 68.7582C158.069 68.96 158.416 69.0429 158.755 68.9889L163.875 68.1731C164.115 68.1353 164.34 68.0309 164.523 67.8717C164.707 67.7125 164.842 67.505 164.913 67.2727L165.942 64.0111C171.993 64.6487 178.105 63.6749 183.658 61.1885L185.65 63.9688C185.79 64.1674 185.983 64.3227 186.207 64.417C186.43 64.5113 186.676 64.5408 186.916 64.5021L192.036 63.6863C192.376 63.6322 192.68 63.4455 192.882 63.1672C193.084 62.8889 193.167 62.5418 193.113 62.2023L192.032 55.418C194.061 53.542 195.618 51.2119 196.573 48.6185C197.529 46.0251 197.857 43.2423 197.53 40.4978C197.225 38.6577 196.579 36.8909 195.624 35.2888C196.513 33.9869 197.171 32.5411 197.568 31.0152C198.438 31.0745 199.312 31.0321 200.173 30.8889C200.512 30.8348 200.816 30.6481 201.018 30.3698C201.22 30.0915 201.303 29.7444 201.249 29.4049C201.195 29.0654 201.008 28.7613 200.73 28.5595C200.451 28.3577 200.104 28.2747 199.765 28.3288L199.534 28.3655ZM153.804 46.1519C153.298 46.2325 152.779 46.1613 152.313 45.947C151.847 45.7328 151.455 45.3852 151.187 44.9483C150.919 44.5114 150.786 44.0047 150.806 43.4924C150.825 42.98 150.996 42.485 151.297 42.0699C151.598 41.6548 152.016 41.3383 152.497 41.1604C152.977 40.9825 153.5 40.9512 153.999 41.0705C154.498 41.1897 154.95 41.4541 155.298 41.8303C155.647 42.2065 155.876 42.6775 155.956 43.1839C156.064 43.8629 155.898 44.557 155.495 45.1136C155.091 45.6702 154.483 46.0437 153.804 46.1519ZM174.306 10.0717C174.252 9.7322 174.335 9.38513 174.537 9.10683C174.739 8.82852 175.043 8.64179 175.383 8.5877C175.722 8.53361 176.069 8.6166 176.347 8.81841C176.626 9.02022 176.812 9.32431 176.867 9.6638L177.682 14.784C177.736 15.1235 177.653 15.4706 177.452 15.7489C177.25 16.0272 176.946 16.2139 176.606 16.268C176.267 16.3221 175.92 16.2391 175.641 16.0373C175.363 15.8355 175.176 15.5314 175.122 15.1919L174.306 10.0717ZM162.73 19.7914C162.489 18.3155 162.769 16.8019 163.52 15.5092C164.272 14.2164 165.449 13.2247 166.85 12.7034C166.886 13.091 166.948 13.4759 167.034 13.8555C167.136 14.4924 167.306 15.1165 167.541 15.7173C167.442 15.9361 167.408 16.1782 167.442 16.4156L168.258 21.5358C168.312 21.8753 168.499 22.1794 168.777 22.3812C169.055 22.583 169.402 22.666 169.742 22.6119C170.081 22.5578 170.385 22.3711 170.587 22.0928C170.789 21.8144 170.872 21.4674 170.818 21.1279L170.589 19.6942C171.885 20.6472 173.41 21.2377 175.01 21.4051C174.445 22.68 173.483 23.7379 172.268 24.4206C171.052 25.1033 169.648 25.3741 168.266 25.1925C166.884 25.0109 165.597 24.3865 164.599 23.413C163.601 22.4394 162.945 21.1689 162.73 19.7914ZM180.399 31.8343C180.353 32.1044 180.223 32.3531 180.027 32.5447C179.831 32.7362 179.58 32.8608 179.309 32.9005L178.899 32.9658C173.047 32.2645 167.116 33.2095 161.772 35.6946C161.449 35.8539 161.076 35.8785 160.736 35.763C160.395 35.6474 160.114 35.4012 159.954 35.0785C159.795 34.7558 159.77 34.383 159.886 34.0421C160.002 33.7012 160.248 33.4202 160.57 33.2609C166.405 30.5305 172.89 29.4972 179.285 30.2792C179.463 30.3006 179.636 30.359 179.791 30.4506C179.945 30.5422 180.08 30.6651 180.184 30.8114C180.289 30.9576 180.362 31.1241 180.399 31.3003C180.436 31.4764 180.436 31.6582 180.399 31.8343ZM195.322 27.9603C194.696 27.8114 194.115 27.5142 193.628 27.0939C193.141 26.6736 192.761 26.1424 192.522 25.5451C192.468 25.2056 192.551 24.8585 192.753 24.5802C192.955 24.3019 193.259 24.1152 193.598 24.0611C193.938 24.007 194.285 24.09 194.563 24.2918C194.842 24.4936 195.028 24.7977 195.082 25.1372C195.236 26.0727 195.299 27.0209 195.271 27.9685L195.322 27.9603Z" fill="#6246EA"/>
</g>
<path d="M372.625 154.313H371.762L368.312 145.4C366.875 142.238 363.712 139.938 360.262 139.938H343.012C338.987 139.938 335.25 142.813 334.675 146.838L332.95 154.313H332.375C327.487 154.313 323.75 158.05 323.75 162.938V171.563C323.75 171.85 323.75 171.85 323.75 172.138C323.75 172.425 323.75 172.425 323.75 172.713C323.75 173 324.037 173 324.037 173.288L324.325 173.575L324.612 173.862C324.9 173.862 324.9 174.15 325.187 174.15C325.475 174.15 325.475 174.15 325.763 174.15C326.05 174.15 326.05 174.15 326.338 174.15H329.212C329.212 179.038 332.95 182.775 337.837 182.775C342.725 182.775 346.462 179.038 346.462 174.15H357.962C357.962 179.038 361.7 182.775 366.587 182.775C371.475 182.775 375.212 179.038 375.212 174.15H378.087C378.375 174.15 378.375 174.15 378.662 174.15C378.95 174.15 378.95 174.15 379.237 174.15C379.525 174.15 379.525 173.862 379.812 173.862L380.1 173.575L380.387 173.288C380.387 173 380.675 173 380.675 172.713C380.675 172.425 380.675 172.425 380.675 172.138C380.675 171.85 380.675 171.85 380.675 171.563V162.938C381.25 158.05 377.512 154.313 372.625 154.313ZM355.375 145.688H359.975C361.125 145.688 362.275 146.263 362.562 147.413L365.15 154.313H355.375V145.688ZM340.137 147.988C340.425 146.55 341.575 145.688 343.012 145.688H349.625V154.313H338.7L340.137 147.988ZM338.125 177.313C336.4 177.313 335.25 176.163 335.25 174.438C335.25 172.713 336.4 171.563 338.125 171.563C339.85 171.563 341 172.713 341 174.438C341 176.163 339.85 177.313 338.125 177.313ZM366.875 177.313C365.15 177.313 364 176.163 364 174.438C364 172.713 365.15 171.563 366.875 171.563C368.6 171.563 369.75 172.713 369.75 174.438C369.75 176.163 368.6 177.313 366.875 177.313Z" fill="#6246EA"/>
<path d="M43.9381 97.5921C43.4836 97.3973 42.9944 97.2969 42.5 97.2969C42.0055 97.2969 41.5163 97.3973 41.0619 97.5921L15.5119 108.542C14.8534 108.823 14.292 109.29 13.8974 109.888C13.5028 110.485 13.2924 111.184 13.2924 111.9C13.2924 112.616 13.5028 113.316 13.8974 113.913C14.292 114.51 14.8534 114.978 15.5119 115.258L25.1625 119.386C25.5207 118.981 25.9645 118.661 26.4619 118.448L41.0619 112.192C41.5037 111.995 41.9802 111.888 42.4638 111.877C42.9473 111.866 43.4283 111.951 43.8787 112.127C44.3291 112.304 44.74 112.568 45.0874 112.904C45.4348 113.241 45.7118 113.643 45.9024 114.088C46.093 114.532 46.1934 115.01 46.1976 115.494C46.2019 115.978 46.1099 116.457 45.9271 116.905C45.7444 117.353 45.4744 117.76 45.1329 118.103C44.7915 118.445 44.3853 118.717 43.9381 118.901L33.9845 123.171L41.0655 126.204C41.5194 126.399 42.008 126.499 42.5018 126.499C42.9955 126.499 43.4841 126.399 43.9381 126.204L69.4881 115.254C70.1443 114.973 70.7036 114.505 71.0966 113.909C71.4895 113.313 71.699 112.614 71.699 111.9C71.699 111.186 71.4895 110.488 71.0966 109.891C70.7036 109.295 70.1443 108.827 69.4881 108.546L43.9381 97.5958V97.5921ZM18.0815 124.299L24.25 126.938V141.91C22.9862 141.623 21.7064 141.411 20.4175 141.275C19.5858 141.188 18.8093 140.818 18.218 140.226C17.6267 139.635 17.2564 138.858 17.169 138.027C16.6889 133.431 16.9976 128.787 18.0815 124.296V124.299ZM39.945 150.492C37.4776 148.071 34.6446 146.053 31.55 144.513V130.07L38.1857 132.917C39.5489 133.501 41.0167 133.803 42.5 133.803C43.9832 133.803 45.451 133.501 46.8143 132.917L66.9185 124.299C68.0087 128.79 68.3174 133.435 67.831 138.03C67.7436 138.862 67.3732 139.639 66.7819 140.23C66.1906 140.821 65.4141 141.192 64.5825 141.279C57.2187 142.053 50.3348 145.301 45.055 150.492C44.3727 151.16 43.4554 151.535 42.5 151.535C41.5446 151.535 40.6272 151.16 39.945 150.492ZM27.9 155.7C28.868 155.7 29.7964 155.316 30.4809 154.631C31.1654 153.947 31.55 153.018 31.55 152.05V144.513C29.2285 143.36 26.7779 142.487 24.25 141.914V152.05C24.25 153.018 24.6345 153.947 25.319 154.631C26.0035 155.316 26.9319 155.7 27.9 155.7Z" fill="#6246EA"/>
<path d="M129.855 170.957C130.66 170.761 131.154 169.95 130.957 169.145C130.761 168.34 129.95 167.847 129.145 168.043L129.855 170.957ZM74.1586 151.547C73.6323 150.908 72.687 150.816 72.0472 151.342C71.4075 151.868 71.3156 152.814 71.8419 153.453L74.1586 151.547ZM92.9993 169.5L92.3983 170.874L92.9993 169.5ZM126.198 168.669C125.385 168.827 124.854 169.615 125.012 170.428C125.17 171.241 125.957 171.772 126.77 171.614L126.198 168.669ZM120.607 172.632C121.428 172.52 122.002 171.764 121.89 170.943C121.778 170.122 121.021 169.548 120.2 169.66L120.607 172.632ZM114.158 170.306C113.332 170.369 112.712 171.089 112.774 171.915C112.837 172.741 113.557 173.36 114.383 173.298L114.158 170.306ZM108.102 173.538C108.931 173.54 109.604 172.87 109.606 172.042C109.608 171.213 108.938 170.54 108.109 170.538L108.102 173.538ZM102.115 170.218C101.291 170.126 100.549 170.718 100.457 171.542C100.364 172.365 100.957 173.107 101.78 173.199L102.115 170.218ZM95.4772 171.982C96.2724 172.214 97.1053 171.757 97.3374 170.962C97.5695 170.167 97.113 169.334 96.3177 169.102L95.4772 171.982ZM90.8415 166.688C90.1304 166.263 89.2094 166.495 88.7845 167.206C88.3595 167.917 88.5916 168.838 89.3027 169.263L90.8415 166.688ZM83.7445 165.306C84.3867 165.829 85.3315 165.733 85.8548 165.091C86.3781 164.448 86.2817 163.503 85.6395 162.98L83.7445 165.306ZM80.8073 158.661C80.2121 158.084 79.2625 158.099 78.6862 158.695C78.1099 159.29 78.1251 160.239 78.7202 160.816L80.8073 158.661ZM74.0596 155.993C74.6159 156.607 75.5645 156.653 76.1784 156.097C76.7922 155.541 76.8387 154.592 76.2824 153.978L74.0596 155.993ZM129.5 169.5C129.145 168.043 129.145 168.043 129.145 168.043C129.145 168.043 129.145 168.043 129.145 168.043C129.145 168.043 129.145 168.043 129.145 168.043C129.145 168.043 129.145 168.043 129.145 168.043C129.145 168.043 129.144 168.043 129.144 168.043C129.142 168.043 129.139 168.044 129.136 168.045C129.128 168.047 129.116 168.05 129.1 168.053C129.068 168.061 129.02 168.073 128.955 168.088C128.825 168.118 128.631 168.162 128.378 168.218C127.872 168.33 127.13 168.488 126.198 168.669L126.77 171.614C127.73 171.428 128.497 171.265 129.026 171.148C129.29 171.089 129.495 171.042 129.635 171.01C129.705 170.993 129.759 170.981 129.796 170.972C129.814 170.967 129.829 170.964 129.839 170.962C129.843 170.96 129.847 170.959 129.85 170.959C129.852 170.958 129.853 170.958 129.853 170.958C129.854 170.958 129.854 170.958 129.855 170.958C129.855 170.958 129.855 170.958 129.855 170.958C129.855 170.958 129.855 170.958 129.855 170.958C129.855 170.957 129.855 170.957 129.5 169.5ZM120.2 169.66C118.346 169.914 116.301 170.145 114.158 170.306L114.383 173.298C116.596 173.131 118.703 172.893 120.607 172.632L120.2 169.66ZM108.109 170.538C106.09 170.534 104.07 170.438 102.115 170.218L101.78 173.199C103.863 173.433 105.995 173.533 108.102 173.538L108.109 170.538ZM96.3177 169.102C95.3621 168.823 94.4533 168.499 93.6003 168.126L92.3983 170.874C93.3826 171.305 94.4137 171.671 95.4772 171.982L96.3177 169.102ZM93.6003 168.126C92.7014 167.733 91.7779 167.247 90.8415 166.688L89.3027 169.263C90.3263 169.875 91.3629 170.422 92.3983 170.874L93.6003 168.126ZM85.6395 162.98C83.9243 161.583 82.2855 160.092 80.8073 158.661L78.7202 160.816C80.2444 162.292 81.948 163.842 83.7445 165.306L85.6395 162.98ZM76.2824 153.978C75.61 153.236 75.0762 152.625 74.7117 152.201C74.5295 151.989 74.3897 151.824 74.2962 151.712C74.2494 151.657 74.2143 151.614 74.1912 151.587C74.1796 151.573 74.1711 151.562 74.1657 151.556C74.1629 151.553 74.161 151.55 74.1598 151.549C74.1592 151.548 74.1588 151.548 74.1586 151.547C74.1585 151.547 74.1584 151.547 74.1584 151.547C74.1584 151.547 74.1585 151.547 74.1585 151.547C74.1585 151.547 74.1585 151.547 74.1585 151.547C74.1586 151.547 74.1586 151.547 73.0002 152.5C71.8419 153.453 71.8419 153.453 71.842 153.453C71.842 153.453 71.842 153.453 71.8421 153.454C71.8421 153.454 71.8422 153.454 71.8423 153.454C71.8425 153.454 71.8428 153.454 71.843 153.455C71.8436 153.455 71.8444 153.456 71.8454 153.458C71.8473 153.46 71.8501 153.463 71.8536 153.467C71.8606 153.476 71.8707 153.488 71.8839 153.504C71.9102 153.536 71.9487 153.582 71.9988 153.642C72.0991 153.761 72.2462 153.935 72.4361 154.156C72.8158 154.598 73.3673 155.229 74.0596 155.993L76.2824 153.978Z" fill="#71717A"/>
<path d="M203.251 230.812C203.147 229.99 202.396 229.408 201.574 229.512C200.753 229.616 200.171 230.366 200.275 231.188L203.251 230.812ZM177.675 283.96C176.979 284.411 176.781 285.339 177.232 286.035C177.683 286.73 178.612 286.928 179.307 286.477L177.675 283.96ZM197.64 267.267L198.938 268.02L197.64 267.267ZM200.564 234.187C200.629 235.013 201.352 235.63 202.177 235.564C203.003 235.499 203.62 234.777 203.555 233.951L200.564 234.187ZM203.871 240.19C203.852 239.362 203.165 238.706 202.337 238.724C201.508 238.743 200.852 239.43 200.871 240.258L203.871 240.19ZM200.831 246.335C200.8 247.163 201.445 247.86 202.273 247.891C203.101 247.923 203.797 247.277 203.829 246.449L200.831 246.335ZM203.358 252.717C203.454 251.894 202.864 251.149 202.041 251.054C201.218 250.958 200.474 251.548 200.378 252.371L203.358 252.717ZM199.383 258.291C199.199 259.099 199.703 259.903 200.511 260.088C201.319 260.273 202.123 259.768 202.308 258.96L199.383 258.291ZM200.386 265.086C200.706 264.322 200.347 263.442 199.583 263.122C198.819 262.802 197.94 263.161 197.619 263.925L200.386 265.086ZM194.602 269.094C194.1 269.752 194.226 270.694 194.885 271.196C195.544 271.699 196.485 271.572 196.987 270.913L194.602 269.094ZM192.428 275.989C193.02 275.41 193.031 274.46 192.452 273.868C191.873 273.276 190.923 273.265 190.331 273.844L192.428 275.989ZM185.493 278.157C184.853 278.683 184.761 279.629 185.287 280.268C185.814 280.908 186.759 281 187.399 280.474L185.493 278.157ZM182.081 284.56C182.753 284.077 182.907 283.14 182.423 282.467C181.94 281.794 181.003 281.641 180.33 282.124L182.081 284.56ZM201.763 231C200.275 231.188 200.275 231.188 200.275 231.188C200.274 231.188 200.274 231.188 200.274 231.188C200.274 231.188 200.274 231.188 200.274 231.188C200.274 231.188 200.274 231.188 200.275 231.188C200.275 231.188 200.275 231.189 200.275 231.19C200.275 231.191 200.275 231.194 200.276 231.198C200.277 231.206 200.278 231.218 200.28 231.234C200.284 231.266 200.29 231.316 200.298 231.382C200.313 231.515 200.335 231.713 200.362 231.97C200.416 232.486 200.489 233.24 200.564 234.187L203.555 233.951C203.478 232.976 203.402 232.196 203.346 231.658C203.318 231.388 203.294 231.179 203.278 231.036C203.269 230.965 203.263 230.91 203.258 230.872C203.256 230.853 203.254 230.839 203.253 230.829C203.252 230.824 203.252 230.82 203.251 230.817C203.251 230.816 203.251 230.814 203.251 230.814C203.251 230.813 203.251 230.813 203.251 230.812C203.251 230.812 203.251 230.812 203.251 230.812C203.251 230.812 203.251 230.812 203.251 230.812C203.251 230.812 203.251 230.812 201.763 231ZM200.871 240.258C200.914 242.13 200.913 244.188 200.831 246.335L203.829 246.449C203.913 244.232 203.915 242.112 203.871 240.19L200.871 240.258ZM200.378 252.371C200.146 254.377 199.822 256.374 199.383 258.291L202.308 258.96C202.775 256.917 203.116 254.81 203.358 252.717L200.378 252.371ZM197.619 263.925C197.234 264.843 196.81 265.71 196.343 266.515L198.938 268.02C199.477 267.09 199.957 266.107 200.386 265.086L197.619 263.925ZM196.343 266.515C195.851 267.364 195.264 268.226 194.602 269.094L196.987 270.913C197.711 269.965 198.371 268.997 198.938 268.02L196.343 266.515ZM190.331 273.844C188.749 275.39 187.083 276.85 185.493 278.157L187.399 280.474C189.038 279.126 190.77 277.609 192.428 275.989L190.331 273.844ZM180.33 282.124C179.517 282.709 178.849 283.17 178.386 283.484C178.155 283.641 177.975 283.761 177.854 283.842C177.793 283.882 177.748 283.912 177.717 283.932C177.702 283.942 177.691 283.949 177.684 283.954C177.68 283.956 177.678 283.958 177.676 283.959C177.675 283.959 177.675 283.96 177.675 283.96C177.674 283.96 177.674 283.96 177.674 283.96C177.674 283.96 177.674 283.96 177.674 283.96C177.674 283.96 177.674 283.96 177.674 283.96C177.674 283.96 177.675 283.96 178.491 285.218C179.307 286.477 179.307 286.477 179.307 286.477C179.307 286.477 179.307 286.477 179.307 286.477C179.307 286.477 179.307 286.477 179.307 286.477C179.308 286.476 179.308 286.476 179.308 286.476C179.309 286.476 179.31 286.475 179.311 286.474C179.314 286.472 179.318 286.47 179.322 286.467C179.331 286.461 179.345 286.452 179.362 286.441C179.396 286.418 179.447 286.385 179.512 286.342C179.642 286.256 179.831 286.13 180.072 285.966C180.554 285.639 181.244 285.162 182.081 284.56L180.33 282.124Z" fill="#71717A"/>
<path d="M220.73 218.552C220.425 217.782 220.802 216.91 221.572 216.606C222.343 216.301 223.214 216.678 223.519 217.448L220.73 218.552ZM240 242.5L239.115 243.711L240 242.5ZM282.6 273.019C282.037 273.627 281.088 273.663 280.48 273.1C279.873 272.537 279.837 271.588 280.4 270.98L282.6 273.019ZM275.319 244.907L275.922 243.533L275.319 244.907ZM224.51 219.695C224.861 220.446 224.537 221.338 223.786 221.689C223.036 222.04 222.143 221.716 221.792 220.966L224.51 219.695ZM224.163 225.61C223.762 224.885 224.025 223.973 224.75 223.572C225.475 223.171 226.387 223.433 226.788 224.158L224.163 225.61ZM229.359 228.459C229.808 229.155 229.609 230.083 228.913 230.533C228.217 230.982 227.288 230.782 226.839 230.087L229.359 228.459ZM229.84 234.367C229.337 233.708 229.464 232.767 230.123 232.264C230.781 231.762 231.723 231.889 232.225 232.547L229.84 234.367ZM235.415 236.355C235.978 236.963 235.941 237.912 235.333 238.475C234.725 239.037 233.776 239.001 233.214 238.393L235.415 236.355ZM237.024 242.06C236.392 241.524 236.315 240.578 236.851 239.946C237.387 239.315 238.334 239.237 238.965 239.773L237.024 242.06ZM242.775 242.351C243.536 242.678 243.887 243.561 243.56 244.322C243.233 245.083 242.351 245.435 241.59 245.107L242.775 242.351ZM246.845 246.457C246.023 246.354 245.44 245.604 245.543 244.782C245.646 243.96 246.396 243.377 247.218 243.48L246.845 246.457ZM251.996 243.669C252.824 243.643 253.517 244.293 253.543 245.121C253.569 245.949 252.919 246.642 252.091 246.668L251.996 243.669ZM257.242 246.23C256.421 246.339 255.667 245.762 255.558 244.941C255.449 244.119 256.026 243.365 256.847 243.256L257.242 246.23ZM263.31 242.273C264.133 242.173 264.88 242.76 264.979 243.582C265.079 244.405 264.492 245.152 263.67 245.251L263.31 242.273ZM271.23 245.252C270.413 245.113 269.864 244.338 270.004 243.521C270.143 242.705 270.918 242.156 271.735 242.295L271.23 245.252ZM278.614 244.857C279.34 245.256 279.605 246.168 279.207 246.894C278.808 247.62 277.896 247.886 277.17 247.487L278.614 244.857ZM281.591 250.561C280.973 250.01 280.919 249.061 281.471 248.443C282.023 247.825 282.971 247.771 283.589 248.323L281.591 250.561ZM287.499 253.175C287.889 253.906 287.612 254.815 286.881 255.204C286.15 255.594 285.242 255.317 284.852 254.586L287.499 253.175ZM286.087 259.382C286.085 258.554 286.755 257.88 287.583 257.878C288.411 257.876 289.085 258.545 289.087 259.374L286.087 259.382ZM287.724 265.539C287.392 266.298 286.508 266.644 285.749 266.313C284.989 265.981 284.643 265.096 284.975 264.337L287.724 265.539ZM282.185 268.891C282.695 268.238 283.637 268.123 284.29 268.633C284.943 269.143 285.059 270.085 284.549 270.738L282.185 268.891ZM222.125 218C223.519 217.448 223.519 217.448 223.519 217.448C223.519 217.448 223.519 217.448 223.519 217.448C223.519 217.448 223.519 217.448 223.519 217.448C223.519 217.448 223.519 217.448 223.519 217.448C223.519 217.448 223.519 217.448 223.519 217.449C223.52 217.45 223.52 217.451 223.522 217.454C223.524 217.459 223.527 217.468 223.532 217.48C223.541 217.503 223.556 217.54 223.577 217.59C223.617 217.688 223.679 217.837 223.762 218.03C223.928 218.417 224.178 218.985 224.51 219.695L221.792 220.966C221.445 220.223 221.182 219.626 221.004 219.211C220.915 219.004 220.848 218.842 220.802 218.731C220.779 218.675 220.762 218.632 220.75 218.602C220.744 218.587 220.739 218.575 220.736 218.567C220.734 218.563 220.733 218.56 220.732 218.557C220.731 218.556 220.731 218.555 220.73 218.554C220.73 218.554 220.73 218.553 220.73 218.553C220.73 218.553 220.73 218.553 220.73 218.553C220.73 218.553 220.73 218.553 220.73 218.552C220.73 218.552 220.73 218.552 222.125 218ZM226.788 224.158C227.526 225.493 228.385 226.951 229.359 228.459L226.839 230.087C225.823 228.514 224.93 226.997 224.163 225.61L226.788 224.158ZM232.225 232.547C233.213 233.842 234.277 235.125 235.415 236.355L233.214 238.393C232.003 237.084 230.878 235.727 229.84 234.367L232.225 232.547ZM238.965 239.773C239.589 240.303 240.229 240.81 240.885 241.289L239.115 243.711C238.397 243.186 237.7 242.634 237.024 242.06L238.965 239.773ZM240.885 241.289C241.445 241.698 242.077 242.051 242.775 242.351L241.59 245.107C240.713 244.73 239.879 244.27 239.115 243.711L240.885 241.289ZM247.218 243.48C248.743 243.671 250.36 243.721 251.996 243.669L252.091 246.668C250.337 246.723 248.559 246.672 246.845 246.457L247.218 243.48ZM256.847 243.256C257.68 243.146 258.491 243.02 259.27 242.885L259.782 245.841C258.968 245.982 258.118 246.114 257.242 246.23L256.847 243.256ZM259.27 242.885C260.59 242.656 261.945 242.438 263.31 242.273L263.67 245.251C262.379 245.407 261.082 245.616 259.782 245.841L259.27 242.885ZM271.735 242.295C273.15 242.537 274.553 242.933 275.922 243.533L274.716 246.28C273.597 245.789 272.433 245.458 271.23 245.252L271.735 242.295ZM275.922 243.533C276.837 243.935 277.738 244.376 278.614 244.857L277.17 247.487C276.376 247.051 275.555 246.649 274.716 246.28L275.922 243.533ZM283.589 248.323C285.171 249.735 286.528 251.352 287.499 253.175L284.852 254.586C284.078 253.135 282.965 251.787 281.591 250.561L283.589 248.323ZM289.087 259.374C289.093 261.343 288.657 263.404 287.724 265.539L284.975 264.337C285.76 262.543 286.092 260.892 286.087 259.382L289.087 259.374ZM284.549 270.738C283.961 271.49 283.312 272.251 282.6 273.019L280.4 270.98C281.059 270.269 281.653 269.572 282.185 268.891L284.549 270.738Z" fill="#71717A"/>
<path d="M138.215 115.778C138.921 116.211 139.845 115.991 140.278 115.285C140.712 114.579 140.491 113.655 139.785 113.222L138.215 115.778ZM131.001 81.9999L129.505 82.1121L131.001 81.9999ZM97.5006 20L96.5797 18.816L97.5006 20ZM139.94 30.5607C140.526 31.1464 141.475 31.1464 142.061 30.5607C142.647 29.9749 142.647 29.0251 142.061 28.4393L139.94 30.5607ZM107.92 58.267L107.281 59.6242L107.92 58.267ZM89.6036 34.1277L88.1227 33.889L89.6036 34.1277ZM138.586 111.541C138.177 110.82 137.262 110.567 136.541 110.976C135.821 111.385 135.568 112.3 135.977 113.021L138.586 111.541ZM133.677 107.532C133.93 108.32 134.776 108.754 135.564 108.5C136.353 108.246 136.786 107.401 136.532 106.613L133.677 107.532ZM135.114 101.291C134.935 100.482 134.134 99.9722 133.325 100.152C132.516 100.331 132.006 101.132 132.186 101.941L135.114 101.291ZM131.114 96.2942C131.247 97.112 132.017 97.6677 132.835 97.5354C133.652 97.4032 134.208 96.633 134.076 95.8152L131.114 96.2942ZM133.303 90.2823C133.204 89.4598 132.458 88.8729 131.635 88.9716C130.813 89.0702 130.226 89.8169 130.324 90.6395L133.303 90.2823ZM129.737 84.9553C129.809 85.7805 130.537 86.3904 131.363 86.3176C132.188 86.2448 132.798 85.5168 132.725 84.6916L129.737 84.9553ZM131.982 78.7834C131.775 77.9813 130.956 77.499 130.154 77.7061C129.352 77.9132 128.87 78.7314 129.077 79.5335L131.982 78.7834ZM126.952 74.6925C127.391 75.3951 128.316 75.6088 129.019 75.1698C129.721 74.7308 129.935 73.8054 129.496 73.1029L126.952 74.6925ZM125.71 68.3477C125.132 67.7547 124.182 67.7429 123.589 68.3213C122.996 68.8998 122.984 69.8495 123.563 70.4425L125.71 68.3477ZM119.396 66.7852C120.055 67.2881 120.996 67.1622 121.499 66.5039C122.002 65.8456 121.876 64.9042 121.218 64.4013L119.396 66.7852ZM116.326 61.0673C115.62 60.6347 114.697 60.8567 114.264 61.5632C113.831 62.2697 114.053 63.1931 114.76 63.6257L116.326 61.0673ZM109.826 60.8715C110.564 61.2483 111.467 60.9556 111.844 60.2179C112.221 59.4801 111.928 58.5765 111.19 58.1997L109.826 60.8715ZM106.196 55.729C105.464 55.341 104.556 55.6198 104.168 56.3517C103.78 57.0836 104.059 57.9915 104.791 58.3796L106.196 55.729ZM99.9972 55.5037C100.682 55.9696 101.615 55.792 102.081 55.107C102.547 54.422 102.369 53.489 101.684 53.0231L99.9972 55.5037ZM97.5863 49.8089C96.9748 49.2499 96.026 49.2925 95.4671 49.9039C94.9081 50.5153 94.9507 51.4641 95.5621 52.0231L97.5863 49.8089ZM91.7247 47.7839C92.2128 48.4533 93.1511 48.6003 93.8205 48.1123C94.4899 47.6242 94.6369 46.6859 94.1488 46.0165L91.7247 47.7839ZM91.7687 41.6313C91.4854 40.8529 90.6246 40.4515 89.8462 40.7348C89.0677 41.0182 88.6663 41.8789 88.9497 42.6574L91.7687 41.6313ZM87.893 36.8425C87.8986 37.6709 88.5747 38.3379 89.4031 38.3323C90.2315 38.3267 90.8985 37.6506 90.8929 36.8222L87.893 36.8425ZM91.9903 30.5591C92.2451 29.7708 91.8126 28.9252 91.0244 28.6704C90.2361 28.4156 89.3905 28.848 89.1357 29.6363L91.9903 30.5591ZM93.3663 21.8965C92.8315 22.5292 92.9109 23.4756 93.5436 24.0103C94.1763 24.5451 95.1227 24.4657 95.6575 23.833L93.3663 21.8965ZM100.747 19.6344C101.468 19.2274 101.723 18.3125 101.316 17.591C100.909 16.8694 99.9944 16.6143 99.2729 17.0213L100.747 19.6344ZM105.298 14.7194C104.489 14.9002 103.981 15.7022 104.162 16.5107C104.342 17.3191 105.144 17.8279 105.953 17.647L105.298 14.7194ZM111.576 17.1355C112.404 17.1587 113.094 16.5063 113.118 15.6782C113.141 14.8501 112.489 14.1599 111.661 14.1366L111.576 17.1355ZM117.919 14.9397C117.11 14.7599 116.309 15.2697 116.129 16.0784C115.949 16.887 116.459 17.6884 117.267 17.8682L117.919 14.9397ZM122.823 19.559C123.596 19.8555 124.464 19.4689 124.76 18.6954C125.057 17.9219 124.67 17.0544 123.897 16.7578L122.823 19.559ZM129.548 19.3374C128.816 18.9495 127.908 19.2284 127.52 19.9604C127.132 20.6924 127.411 21.6002 128.143 21.9882L129.548 19.3374ZM133.167 25.0182C133.851 25.4843 134.784 25.307 135.251 24.6222C135.717 23.9374 135.539 23.0043 134.855 22.5382L133.167 25.0182ZM139.778 26.3167C139.152 25.7738 138.205 25.8409 137.662 26.4667C137.119 27.0924 137.186 28.0398 137.812 28.5827L139.778 26.3167ZM139 114.5C139.785 113.222 139.786 113.222 139.787 113.223C139.787 113.223 139.788 113.223 139.788 113.223C139.789 113.224 139.79 113.225 139.791 113.225C139.793 113.226 139.795 113.228 139.797 113.229C139.8 113.231 139.804 113.233 139.807 113.235C139.813 113.239 139.819 113.243 139.824 113.246C139.834 113.253 139.841 113.258 139.845 113.261C139.853 113.267 139.85 113.265 139.836 113.253C139.808 113.23 139.736 113.166 139.627 113.048C139.41 112.81 139.045 112.349 138.586 111.541L135.977 113.021C136.531 113.998 137.024 114.646 137.413 115.072C137.608 115.285 137.776 115.441 137.912 115.555C137.98 115.612 138.04 115.658 138.091 115.694C138.116 115.713 138.139 115.729 138.16 115.742C138.17 115.749 138.18 115.756 138.189 115.762C138.194 115.765 138.198 115.767 138.203 115.77C138.205 115.771 138.207 115.773 138.209 115.774C138.21 115.775 138.211 115.775 138.212 115.776C138.212 115.776 138.213 115.777 138.213 115.777C138.214 115.777 138.215 115.778 139 114.5ZM136.532 106.613C136.064 105.156 135.583 103.401 135.114 101.291L132.186 101.941C132.672 104.131 133.176 105.977 133.677 107.532L136.532 106.613ZM134.076 95.8152C133.804 94.1311 133.544 92.2914 133.303 90.2823L130.324 90.6395C130.57 92.6865 130.835 94.5669 131.114 96.2942L134.076 95.8152ZM132.725 84.6916C132.645 83.7851 132.569 82.8507 132.496 81.8877L129.505 82.1121C129.578 83.0879 129.655 84.0353 129.737 84.9553L132.725 84.6916ZM132.496 81.8877C132.417 80.8257 132.242 79.7906 131.982 78.7834L129.077 79.5335C129.294 80.3735 129.439 81.2327 129.505 82.1121L132.496 81.8877ZM129.496 73.1029C128.438 71.4098 127.152 69.8255 125.71 68.3477L123.563 70.4425C124.881 71.7939 126.026 73.2113 126.952 74.6925L129.496 73.1029ZM121.218 64.4013C119.658 63.2095 118.01 62.0985 116.326 61.0673L114.76 63.6257C116.37 64.6116 117.93 65.665 119.396 66.7852L121.218 64.4013ZM111.19 58.1997C110.309 57.7496 109.429 57.3196 108.559 56.9098L107.281 59.6242C108.125 60.0211 108.975 60.4369 109.826 60.8715L111.19 58.1997ZM108.559 56.9098C107.767 56.537 106.977 56.1433 106.196 55.729L104.791 58.3796C105.616 58.8171 106.448 59.232 107.281 59.6242L108.559 56.9098ZM101.684 53.0231C100.219 52.0268 98.839 50.9541 97.5863 49.8089L95.5621 52.0231C96.9348 53.2779 98.4306 54.4383 99.9972 55.5037L101.684 53.0231ZM94.1488 46.0165C93.1332 44.6235 92.3254 43.1606 91.7687 41.6313L88.9497 42.6574C89.6153 44.4862 90.5668 46.1958 91.7247 47.7839L94.1488 46.0165ZM90.8929 36.8222C90.8875 36.0252 90.949 35.2068 91.0844 34.3665L88.1227 33.889C87.961 34.8916 87.8864 35.8765 87.893 36.8425L90.8929 36.8222ZM91.0844 34.3665C91.2907 33.0871 91.5859 31.8098 91.9903 30.5591L89.1357 29.6363C88.6792 31.0484 88.3505 32.4762 88.1227 33.889L91.0844 34.3665ZM95.6575 23.833C96.4532 22.8916 97.3689 22.0027 98.4215 21.184L96.5797 18.816C95.3605 19.7642 94.2946 20.7981 93.3663 21.8965L95.6575 23.833ZM98.4215 21.184C99.1757 20.5974 99.9518 20.0826 100.747 19.6344L99.2729 17.0213C98.3494 17.5421 97.4502 18.1389 96.5797 18.816L98.4215 21.184ZM105.953 17.647C107.77 17.2405 109.654 17.0814 111.576 17.1355L111.661 14.1366C109.519 14.0764 107.384 14.2527 105.298 14.7194L105.953 17.647ZM117.267 17.8682C119.132 18.2829 120.994 18.8579 122.823 19.559L123.897 16.7578C121.946 16.0099 119.943 15.3898 117.919 14.9397L117.267 17.8682ZM128.143 21.9882C129.903 22.9207 131.588 23.9439 133.167 25.0182L134.855 22.5382C133.189 21.4041 131.409 20.3234 129.548 19.3374L128.143 21.9882ZM137.812 28.5827C138.574 29.2441 139.285 29.9061 139.94 30.5607L142.061 28.4393C141.354 27.7318 140.59 27.0217 139.778 26.3167L137.812 28.5827Z" fill="#71717A"/>
<path d="M263.5 120.5L262 120.5L263.5 120.5ZM248.6 150.3C247.937 150.797 247.803 151.737 248.3 152.4C248.797 153.063 249.737 153.197 250.4 152.7L248.6 150.3ZM280.744 70.2953C281.46 70.7127 282.378 70.471 282.796 69.7554C283.213 69.0399 282.971 68.1214 282.256 67.7039L280.744 70.2953ZM252.836 150.852C253.493 150.347 253.615 149.405 253.11 148.749C252.604 148.092 251.663 147.97 251.006 148.475L252.836 150.852ZM255.614 144.697C255 145.253 254.952 146.201 255.508 146.816C256.063 147.43 257.012 147.478 257.626 146.922L255.614 144.697ZM261.897 142.091C262.345 141.394 262.142 140.466 261.445 140.018C260.748 139.571 259.82 139.774 259.372 140.471L261.897 142.091ZM261.336 135.369C261.178 136.182 261.71 136.969 262.523 137.127C263.336 137.284 264.123 136.752 264.281 135.939L261.336 135.369ZM264.903 129.67C264.934 128.842 264.289 128.146 263.461 128.114C262.633 128.083 261.936 128.728 261.905 129.556L264.903 129.67ZM261.997 123.541C261.995 124.369 262.665 125.042 263.494 125.045C264.322 125.047 264.995 124.377 264.997 123.548L261.997 123.541ZM264.652 117.348C264.479 116.538 263.682 116.022 262.872 116.195C262.062 116.368 261.545 117.166 261.718 117.976L264.652 117.348ZM259.872 112.968C260.24 113.71 261.14 114.013 261.883 113.645C262.625 113.277 262.928 112.376 262.559 111.634L259.872 112.968ZM259.628 106.534C259.183 105.835 258.256 105.629 257.557 106.074C256.858 106.518 256.651 107.445 257.096 108.144L259.628 106.534ZM253.955 103.403C254.418 104.09 255.35 104.271 256.037 103.808C256.724 103.345 256.905 102.413 256.442 101.726L253.955 103.403ZM253.32 96.9836C252.879 96.2821 251.954 96.0709 251.252 96.5117C250.551 96.9525 250.339 97.8784 250.78 98.5798L253.32 96.9836ZM247.872 93.4759C248.242 94.2175 249.142 94.5194 249.884 94.1502C250.625 93.781 250.927 92.8805 250.558 92.1389L247.872 93.4759ZM248.58 87.0928C248.364 86.293 247.541 85.8195 246.741 86.0353C245.941 86.2511 245.468 87.0745 245.684 87.8743L248.58 87.0928ZM245.022 81.7142C244.965 82.5406 245.588 83.2573 246.414 83.315C247.241 83.3727 247.957 82.7495 248.015 81.9231L245.022 81.7142ZM249.56 76.4384C249.924 75.6941 249.615 74.7958 248.871 74.4321C248.127 74.0684 247.228 74.377 246.865 75.1213L249.56 76.4384ZM251.382 69.2248C250.758 69.7699 250.695 70.7175 251.24 71.3413C251.785 71.9651 252.732 72.0289 253.356 71.4838L251.382 69.2248ZM258.794 68.2571C259.567 67.96 259.953 67.0923 259.656 66.319C259.359 65.5456 258.492 65.1595 257.718 65.4566L258.794 68.2571ZM264.821 63.8549C263.996 63.926 263.385 64.6528 263.456 65.4781C263.527 66.3035 264.254 66.9149 265.079 66.8438L264.821 63.8549ZM271.579 67.0829C272.398 67.2118 273.165 66.6528 273.294 65.8344C273.423 65.0161 272.864 64.2482 272.046 64.1194L271.579 67.0829ZM279.001 66.0843C278.238 65.7639 277.358 66.1235 277.038 66.8874C276.718 67.6514 277.077 68.5304 277.841 68.8508L279.001 66.0843ZM250.4 152.7C251.262 152.054 252.073 151.44 252.836 150.852L251.006 148.475C250.256 149.052 249.455 149.658 248.6 150.3L250.4 152.7ZM257.626 146.922C259.427 145.294 260.83 143.755 261.897 142.091L259.372 140.471C258.497 141.836 257.298 143.174 255.614 144.697L257.626 146.922ZM264.281 135.939C264.635 134.11 264.812 132.059 264.903 129.67L261.905 129.556C261.817 131.877 261.648 133.756 261.336 135.369L264.281 135.939ZM264.997 123.548C265 122.583 265 121.568 265 120.5L262 120.5C262 121.569 262 122.58 261.997 123.541L264.997 123.548ZM265 120.5C265 119.443 264.875 118.392 264.652 117.348L261.718 117.976C261.903 118.84 262 119.68 262 120.5L265 120.5ZM262.559 111.634C261.715 109.932 260.705 108.229 259.628 106.534L257.096 108.144C258.144 109.792 259.093 111.398 259.872 112.968L262.559 111.634ZM256.442 101.726C255.373 100.142 254.315 98.5657 253.32 96.9836L250.78 98.5798C251.804 100.208 252.888 101.822 253.955 103.403L256.442 101.726ZM250.558 92.1389C249.71 90.436 249.029 88.7552 248.58 87.0928L245.684 87.8743C246.197 89.7779 246.962 91.648 247.872 93.4759L250.558 92.1389ZM248.015 81.9231C248.074 81.0817 248.214 80.2407 248.446 79.3988L245.554 78.6012C245.267 79.6407 245.095 80.6791 245.022 81.7142L248.015 81.9231ZM248.446 79.3988C248.739 78.3381 249.114 77.3523 249.56 76.4384L246.865 75.1213C246.335 76.2054 245.895 77.3655 245.554 78.6012L248.446 79.3988ZM253.356 71.4838C254.931 70.1079 256.774 69.0331 258.794 68.2571L257.718 65.4566C255.403 66.3458 253.248 67.594 251.382 69.2248L253.356 71.4838ZM265.079 66.8438C267.217 66.6596 269.413 66.742 271.579 67.0829L272.046 64.1194C269.648 63.742 267.208 63.6492 264.821 63.8549L265.079 66.8438ZM277.841 68.8508C278.845 69.272 279.817 69.7541 280.744 70.2953L282.256 67.7039C281.211 67.0945 280.122 66.5543 279.001 66.0843L277.841 68.8508Z" fill="#71717A"/>
<path d="M279 185.5L277.567 185.059L279 185.5ZM314.02 167.135C314.647 167.677 315.594 167.608 316.135 166.981C316.677 166.354 316.607 165.406 315.98 164.865L314.02 167.135ZM270 213L271.126 213.991L270 213ZM241.283 200.223C240.853 199.514 239.931 199.288 239.223 199.717C238.514 200.147 238.288 201.069 238.717 201.777L241.283 200.223ZM313.329 162.923C312.622 162.491 311.699 162.714 311.267 163.421C310.835 164.128 311.058 165.051 311.765 165.483L313.329 162.923ZM306.636 163.532C307.453 163.673 308.229 163.126 308.37 162.31C308.511 161.493 307.964 160.717 307.148 160.576L306.636 163.532ZM300.554 160.679C299.741 160.839 299.212 161.627 299.371 162.44C299.531 163.253 300.319 163.782 301.132 163.623L300.554 160.679ZM295.844 165.538C296.576 165.15 296.856 164.242 296.468 163.51C296.08 162.778 295.172 162.499 294.44 162.887L295.844 165.538ZM289.166 166.534C288.54 167.077 288.473 168.024 289.016 168.65C289.559 169.276 290.506 169.343 291.132 168.8L289.166 166.534ZM287.133 172.999C287.648 172.351 287.54 171.407 286.891 170.892C286.243 170.377 285.299 170.485 284.784 171.133L287.133 172.999ZM281.267 176.385C280.861 177.108 281.118 178.022 281.84 178.428C282.562 178.833 283.477 178.577 283.882 177.854L281.267 176.385ZM281.395 183.16C281.692 182.387 281.306 181.519 280.533 181.222C279.76 180.924 278.892 181.31 278.595 182.083L281.395 183.16ZM276.62 188.819C276.462 189.632 276.993 190.419 277.806 190.577C278.62 190.735 279.407 190.204 279.565 189.391L276.62 188.819ZM278.894 196.547C278.929 195.719 278.286 195.02 277.458 194.986C276.631 194.951 275.932 195.594 275.897 196.422L278.894 196.547ZM274.725 203.214C274.425 203.987 274.808 204.856 275.581 205.155C276.353 205.455 277.222 205.071 277.522 204.299L274.725 203.214ZM273.561 211.039C274.064 210.381 273.938 209.439 273.28 208.936C272.622 208.433 271.68 208.559 271.177 209.217L273.561 211.039ZM266.647 214.274C266.03 214.826 265.978 215.775 266.53 216.392C267.083 217.009 268.031 217.062 268.648 216.509L266.647 214.274ZM262.339 220.204C263.137 219.982 263.603 219.155 263.381 218.357C263.158 217.559 262.331 217.092 261.533 217.315L262.339 220.204ZM255.994 216.864C255.233 216.535 254.35 216.885 254.022 217.646C253.693 218.406 254.043 219.289 254.804 219.618L255.994 216.864ZM248.917 215.478C249.513 216.054 250.463 216.038 251.038 215.442C251.614 214.846 251.598 213.897 251.002 213.321L248.917 215.478ZM246.769 208.444C246.269 207.784 245.328 207.653 244.667 208.153C244.007 208.652 243.876 209.593 244.376 210.254L246.769 208.444ZM240.506 204.652C240.953 205.35 241.881 205.554 242.578 205.107C243.276 204.66 243.479 203.732 243.033 203.035L240.506 204.652ZM315.98 164.865C315.125 164.126 314.239 163.479 313.329 162.923L311.765 165.483C312.53 165.951 313.284 166.5 314.02 167.135L315.98 164.865ZM307.148 160.576C304.963 160.198 302.744 160.249 300.554 160.679L301.132 163.623C302.988 163.258 304.836 163.221 306.636 163.532L307.148 160.576ZM294.44 162.887C292.608 163.857 290.838 165.084 289.166 166.534L291.132 168.8C292.646 167.487 294.229 166.393 295.844 165.538L294.44 162.887ZM284.784 171.133C283.509 172.738 282.329 174.495 281.267 176.385L283.882 177.854C284.868 176.099 285.96 174.475 287.133 172.999L284.784 171.133ZM278.595 182.083C278.222 183.051 277.879 184.044 277.567 185.059L280.434 185.941C280.726 184.991 281.047 184.064 281.395 183.16L278.595 182.083ZM277.567 185.059C277.151 186.411 276.846 187.657 276.62 188.819L279.565 189.391C279.771 188.333 280.05 187.191 280.434 185.941L277.567 185.059ZM275.897 196.422C275.797 198.821 275.643 200.846 274.725 203.214L277.522 204.299C278.627 201.447 278.792 199.009 278.894 196.547L275.897 196.422ZM271.177 209.217C270.513 210.086 269.75 211.013 268.874 212.009L271.126 213.991C272.042 212.95 272.849 211.97 273.561 211.039L271.177 209.217ZM268.874 212.009C268.114 212.873 267.372 213.625 266.647 214.274L268.648 216.509C269.472 215.771 270.298 214.932 271.126 213.991L268.874 212.009ZM261.533 217.315C259.668 217.835 257.852 217.667 255.994 216.864L254.804 219.618C257.228 220.665 259.748 220.927 262.339 220.204L261.533 217.315ZM251.002 213.321C249.613 211.978 248.205 210.344 246.769 208.444L244.376 210.254C245.877 212.24 247.387 213.999 248.917 215.478L251.002 213.321ZM243.033 203.035C242.453 202.13 241.87 201.192 241.283 200.223L238.717 201.777C239.316 202.765 239.912 203.725 240.506 204.652L243.033 203.035Z" fill="#71717A"/>
<path d="M104.5 217.5L103.676 218.754L104.5 217.5ZM47.4802 210.635C46.8532 211.177 45.906 211.107 45.3645 210.481C44.823 209.854 44.8923 208.906 45.5193 208.365L47.4802 210.635ZM125 235.5L123.874 236.491L125 235.5ZM167.136 223.874C167.482 223.121 168.373 222.791 169.126 223.137C169.879 223.483 170.208 224.373 169.863 225.126L167.136 223.874ZM48.2599 206.425C48.9772 206.011 49.8946 206.256 50.3091 206.973C50.7236 207.691 50.4781 208.608 49.7608 209.023L48.2599 206.425ZM55.0834 206.95C54.2788 207.148 53.4666 206.655 53.2694 205.851C53.0722 205.046 53.5646 204.234 54.3692 204.037L55.0834 206.95ZM60.73 203.127C61.5571 203.081 62.2651 203.714 62.3114 204.541C62.3576 205.368 61.7246 206.076 60.8974 206.122L60.73 203.127ZM66.8606 206.19C66.0343 206.131 65.4124 205.413 65.4715 204.587C65.5306 203.76 66.2483 203.138 67.0746 203.197L66.8606 206.19ZM73.3294 203.959C74.1463 204.096 74.6969 204.87 74.5592 205.687C74.4215 206.504 73.6476 207.055 72.8307 206.917L73.3294 203.959ZM78.743 208.159C77.9393 207.958 77.4508 207.144 77.6518 206.34C77.8529 205.536 78.6673 205.048 79.471 205.249L78.743 208.159ZM85.4892 206.98C86.2771 207.236 86.7083 208.083 86.4522 208.87C86.1962 209.658 85.3499 210.09 84.5621 209.833L85.4892 206.98ZM90.2591 211.896C89.4899 211.588 89.1157 210.715 89.4233 209.946C89.731 209.177 90.6039 208.803 91.3731 209.11L90.2591 211.896ZM97.1046 211.633C97.8506 211.994 98.1632 212.89 97.8029 213.636C97.4426 214.382 96.5457 214.695 95.7998 214.335L97.1046 211.633ZM101.129 217.172C100.415 216.752 100.177 215.833 100.596 215.118C101.016 214.404 101.936 214.166 102.65 214.586L101.129 217.172ZM108.196 218.118C108.891 218.568 109.089 219.497 108.639 220.193C108.189 220.888 107.26 221.086 106.565 220.636L108.196 218.118ZM112.174 224.403C111.511 223.906 111.376 222.966 111.873 222.303C112.37 221.64 113.31 221.505 113.973 222.002L112.174 224.403ZM119.215 226.803C119.784 227.405 119.756 228.354 119.154 228.923C118.552 229.492 117.602 229.465 117.034 228.862L119.215 226.803ZM121.599 233.911C121.05 233.29 121.108 232.342 121.729 231.794C122.349 231.245 123.297 231.303 123.846 231.923L121.599 233.911ZM128.313 236.606C128.958 237.126 129.058 238.07 128.538 238.715C128.018 239.359 127.073 239.46 126.429 238.94L128.313 236.606ZM132.555 242.392C131.777 242.106 131.379 241.244 131.665 240.466C131.951 239.689 132.813 239.291 133.59 239.577L132.555 242.392ZM139.588 240.834C140.415 240.891 141.039 241.607 140.981 242.433C140.924 243.26 140.208 243.884 139.382 243.826L139.588 240.834ZM146.294 243.444C145.478 243.588 144.7 243.043 144.557 242.227C144.413 241.411 144.957 240.633 145.773 240.489L146.294 243.444ZM151.75 238.731C152.515 238.412 153.393 238.773 153.712 239.538C154.031 240.302 153.67 241.181 152.905 241.499L151.75 238.731ZM158.937 238.191C158.257 238.664 157.322 238.496 156.849 237.816C156.376 237.136 156.544 236.201 157.224 235.728L158.937 238.191ZM161.94 231.64C162.505 231.034 163.454 231 164.06 231.565C164.666 232.13 164.7 233.079 164.135 233.685L161.94 231.64ZM168.261 228.178C167.838 228.89 166.918 229.124 166.205 228.701C165.493 228.278 165.259 227.358 165.682 226.645L168.261 228.178ZM45.5193 208.365C46.3649 207.635 47.2822 206.99 48.2599 206.425L49.7608 209.023C48.9356 209.499 48.174 210.036 47.4802 210.635L45.5193 208.365ZM54.3692 204.037C56.3761 203.545 58.5116 203.251 60.73 203.127L60.8974 206.122C58.8327 206.237 56.8833 206.509 55.0834 206.95L54.3692 204.037ZM67.0746 203.197C69.1259 203.344 71.22 203.603 73.3294 203.959L72.8307 206.917C70.806 206.575 68.8074 206.329 66.8606 206.19L67.0746 203.197ZM79.471 205.249C81.4909 205.754 83.5047 206.335 85.4892 206.98L84.5621 209.833C82.6406 209.209 80.6932 208.647 78.743 208.159L79.471 205.249ZM91.3731 209.11C93.3462 209.899 95.2653 210.745 97.1046 211.633L95.7998 214.335C94.0248 213.477 92.1695 212.66 90.2591 211.896L91.3731 209.11ZM102.65 214.586C103.576 215.13 104.469 215.684 105.324 216.246L103.676 218.754C102.865 218.221 102.015 217.692 101.129 217.172L102.65 214.586ZM105.324 216.246C106.391 216.948 107.34 217.564 108.196 218.118L106.565 220.636C105.707 220.08 104.752 219.46 103.676 218.754L105.324 216.246ZM113.973 222.002C115.716 223.308 117.184 224.652 119.215 226.803L117.034 228.862C115.083 226.796 113.742 225.578 112.174 224.403L113.973 222.002ZM123.846 231.923C124.545 232.713 125.302 233.572 126.126 234.509L123.874 236.491C123.05 235.555 122.295 234.698 121.599 233.911L123.846 231.923ZM126.126 234.509C126.804 235.28 127.536 235.978 128.313 236.606L126.429 238.94C125.52 238.207 124.666 237.391 123.874 236.491L126.126 234.509ZM133.59 239.577C135.479 240.271 137.499 240.689 139.588 240.834L139.382 243.826C137.028 243.664 134.727 243.191 132.555 242.392L133.59 239.577ZM145.773 240.489C147.784 240.135 149.795 239.546 151.75 238.731L152.905 241.499C150.75 242.399 148.527 243.05 146.294 243.444L145.773 240.489ZM157.224 235.728C158.908 234.556 160.495 233.192 161.94 231.64L164.135 233.685C162.542 235.396 160.792 236.9 158.937 238.191L157.224 235.728ZM165.682 226.645C166.208 225.761 166.694 224.837 167.136 223.874L169.863 225.126C169.376 226.185 168.84 227.203 168.261 228.178L165.682 226.645Z" fill="#71717A"/>
<path d="M188.228 105.154L188.229 105.154L188.228 105.154ZM189.272 109.206L237.362 123.633V176.728C237.362 182.508 235.03 188.749 229.879 195.322C225.938 200.35 220.382 205.528 213.27 210.676C202.073 218.781 191.006 223.971 189.272 224.764C187.541 223.972 176.472 218.782 165.274 210.676C158.162 205.528 152.605 200.35 148.665 195.322C143.514 188.749 141.182 182.507 141.182 176.728V123.633L189.272 109.206ZM140.79 123.751L140.79 123.75L140.79 123.751ZM189.497 224.866L189.496 224.866L189.497 224.866ZM237.753 123.75C237.753 123.75 237.753 123.75 237.753 123.75L237.753 123.75ZM189.429 109.159L189.43 109.159L189.429 109.159Z" stroke="#6246EA" stroke-width="8.36349"/>
<path d="M176.669 175.325C163.573 175.325 154.336 166.025 154.336 152.739C154.336 139.453 163.573 130.09 176.669 130.09C187.234 130.09 195.205 136.037 197.736 145.653H185.842C184.007 141.857 180.654 139.959 176.542 139.959C169.899 139.959 165.344 144.894 165.344 152.739C165.344 160.584 169.899 165.518 176.542 165.518C180.649 165.518 183.998 163.626 185.834 159.841C188.118 154.772 193.831 152.025 200.956 152.025C210.635 152.025 217.152 156.833 217.595 165.31H205.891C205.701 162.463 203.676 160.755 200.766 160.692C198.172 160.629 196.211 161.957 196.211 164.741C196.211 167.973 200.061 169.242 204.536 170.716C210.748 172.763 218.164 175.206 218.164 183.847C218.164 191.312 212.344 197.512 201.968 197.512C192.415 197.512 184.95 192.768 184.633 183.784H196.148C196.464 187.2 198.615 188.845 201.652 188.845C204.815 188.845 206.839 187.263 206.839 184.67C206.839 181.222 202.938 179.998 198.415 178.579C194.507 177.352 190.135 175.98 187.415 172.903C184.309 174.478 180.676 175.325 176.669 175.325Z" fill="#6246EA"/>
<defs>
<clipPath id="clip0_1719_8486">
<rect width="60" height="60" fill="white" transform="translate(291.195 27.8809) rotate(10.87)"/>
</clipPath>
<clipPath id="clip1_1719_8486">
<rect width="67" height="67" fill="white" transform="translate(224.005 268.334) rotate(-11.4756)"/>
</clipPath>
<clipPath id="clip2_1719_8486">
<rect width="60.8975" height="60.8975" fill="white" transform="translate(24.8027 202) rotate(13.0998)"/>
</clipPath>
<clipPath id="clip3_1719_8486">
<rect width="62.2174" height="62.2174" fill="white" transform="translate(134.885 9.78955) rotate(-9.05258)"/>
</clipPath>
</defs>
</svg>
