<svg width="68" height="67" viewBox="0 0 68 67" fill="none" xmlns="http://www.w3.org/2000/svg">
<path fill-rule="evenodd" clip-rule="evenodd" d="M33.3791 0C35.8825 0 37.912 2.02944 37.912 4.53289C37.912 7.03633 35.8825 9.06577 33.3791 9.06577C21.2498 9.06577 10.9472 17.9381 9.07609 29.9378L9.02198 30.3024C8.6726 32.7814 6.37978 34.5077 3.90084 34.1583C1.4219 33.809 -0.304455 31.5161 0.0449279 29.0372C2.39195 12.3846 16.6038 0 33.3791 0Z" fill="#E4E4E7"/>
<path fill-rule="evenodd" clip-rule="evenodd" d="M30.3302 4.36408C30.4386 1.86298 32.554 -0.0767029 35.0551 0.0316728C48.4952 0.614047 60.315 9.12806 65.0404 21.6856C69.9536 34.7422 66.1852 49.4557 55.5949 58.5889C52.44 61.3097 48.8324 63.4023 44.9462 64.7899C35.9777 67.9922 26.0151 67.2768 17.5534 62.7079C5.23673 56.0576 -1.63227 42.5008 0.333113 28.7003C0.686077 26.2219 2.98138 24.4988 5.45982 24.8518C7.93826 25.2047 9.66129 27.5 9.30833 29.9785C7.87911 40.0141 12.8784 49.8808 21.8607 54.7307C28.0479 58.0715 35.3362 58.5949 41.8977 56.252C44.7364 55.2385 47.3694 53.7112 49.6741 51.7236C57.3881 45.071 60.1281 34.3726 56.5555 24.8785C53.1473 15.8214 44.6562 9.63913 34.9569 9.10345L34.6626 9.08895C32.1615 8.98057 30.2219 6.86518 30.3302 4.36408Z" fill="#6246EA"/>
</svg>
