<svg width="206" height="45" viewBox="0 0 206 45" fill="none" xmlns="http://www.w3.org/2000/svg">
<path d="M31.7323 30.7835C30.3893 32.4974 28.4954 34.262 26.0715 36.0167C22.2554 38.779 18.4835 40.5477 17.8926 40.8182C17.3025 40.548 13.5301 38.7793 9.71365 36.0167C7.28969 34.262 5.3958 32.4974 4.05282 30.7835C2.29738 28.5433 1.50238 26.4161 1.50238 24.4463V6.35054L17.8927 1.43348L34.2826 6.35054V24.4463C34.2826 26.4163 33.4877 28.5434 31.7323 30.7835ZM17.8388 1.41732L17.8389 1.41737L17.8388 1.41732ZM17.5369 0.0525723L17.537 0.052719L17.5369 0.0525723Z" stroke="#6246EA" stroke-width="2.85045"/>
<path d="M13.5973 23.9682C9.13392 23.9682 5.98584 20.7986 5.98584 16.2705C5.98584 11.7425 9.13392 8.55127 13.5973 8.55127C17.1982 8.55127 19.915 10.5781 20.7775 13.8556H16.7238C16.0985 12.5618 14.9557 11.915 13.5542 11.915C11.2901 11.915 9.73766 13.5968 9.73766 16.2705C9.73766 18.9442 11.2901 20.6261 13.5542 20.6261C14.9537 20.6261 16.0953 19.981 16.7212 18.6909C17.4994 16.9635 19.4467 16.0271 21.8749 16.0271C25.1739 16.0271 27.3948 17.6658 27.5457 20.5552H23.5567C23.492 19.5849 22.8021 19.0027 21.8102 18.9811C20.9261 18.9596 20.2577 19.4124 20.2577 20.3611C20.2577 21.4627 21.5699 21.8951 23.0952 22.3976C25.2122 23.095 27.7398 23.9278 27.7398 26.8729C27.7398 29.4172 25.7561 31.5303 22.2199 31.5303C18.964 31.5303 16.4196 29.9132 16.3118 26.8513H20.2361C20.344 28.0157 21.0771 28.5763 22.1121 28.5763C23.1902 28.5763 23.8802 28.0372 23.8802 27.1532C23.8802 25.9783 22.5504 25.561 21.0089 25.0773C19.677 24.6593 18.1869 24.1917 17.2598 23.1429C16.2014 23.6798 14.9629 23.9682 13.5973 23.9682Z" fill="#6246EA"/>
<path d="M88.9165 32.719C88.9165 33.514 88.6424 34.1765 88.0941 34.7065C87.555 35.2274 86.728 35.4878 85.6131 35.4878H83.7764V39.4766H82.5291V29.9228H85.6131C86.6914 29.9228 87.5093 30.1832 88.0667 30.7041C88.6332 31.225 88.9165 31.8966 88.9165 32.719ZM85.6131 34.4598C86.3076 34.4598 86.8194 34.309 87.1483 34.0075C87.4773 33.7059 87.6418 33.2764 87.6418 32.719C87.6418 31.5402 86.9656 30.9508 85.6131 30.9508H83.7764V34.4598H85.6131ZM98.2386 39.4766L95.9633 35.5701H94.4555V39.4766H93.2082V29.9228H96.2923C97.0142 29.9228 97.6218 30.0462 98.1153 30.2929C98.6179 30.5396 98.9925 30.8732 99.2393 31.2935C99.486 31.7138 99.6093 32.1936 99.6093 32.7327C99.6093 33.3907 99.4174 33.9709 99.0336 34.4735C98.659 34.9761 98.0924 35.3096 97.334 35.4741L99.7327 39.4766H98.2386ZM94.4555 34.5695H96.2923C96.9685 34.5695 97.4756 34.405 97.8137 34.076C98.1518 33.7379 98.3209 33.2902 98.3209 32.7327C98.3209 32.1662 98.1518 31.7276 97.8137 31.4169C97.4848 31.1062 96.9776 30.9508 96.2923 30.9508H94.4555V34.5695ZM108.62 39.5725C107.734 39.5725 106.925 39.3669 106.194 38.9557C105.463 38.5354 104.883 37.9551 104.453 37.2149C104.033 36.4656 103.823 35.6249 103.823 34.6928C103.823 33.7608 104.033 32.9246 104.453 32.1845C104.883 31.4351 105.463 30.8549 106.194 30.4437C106.925 30.0233 107.734 29.8131 108.62 29.8131C109.516 29.8131 110.329 30.0233 111.06 30.4437C111.791 30.8549 112.367 31.4306 112.787 32.1707C113.208 32.9109 113.418 33.7516 113.418 34.6928C113.418 35.634 113.208 36.4747 112.787 37.2149C112.367 37.9551 111.791 38.5354 111.06 38.9557C110.329 39.3669 109.516 39.5725 108.62 39.5725ZM108.62 38.4897C109.287 38.4897 109.886 38.3343 110.416 38.0236C110.955 37.7129 111.375 37.2697 111.677 36.694C111.988 36.1184 112.143 35.4513 112.143 34.6928C112.143 33.9252 111.988 33.2582 111.677 32.6916C111.375 32.1159 110.96 31.6727 110.43 31.362C109.9 31.0513 109.296 30.896 108.62 30.896C107.944 30.896 107.341 31.0513 106.811 31.362C106.281 31.6727 105.861 32.1159 105.55 32.6916C105.248 33.2582 105.098 33.9252 105.098 34.6928C105.098 35.4513 105.248 36.1184 105.55 36.694C105.861 37.2697 106.281 37.7129 106.811 38.0236C107.35 38.3343 107.953 38.4897 108.62 38.4897ZM125.043 32.6916C124.778 32.1342 124.394 31.7047 123.892 31.4032C123.389 31.0925 122.804 30.9371 122.137 30.9371C121.47 30.9371 120.867 31.0925 120.328 31.4032C119.798 31.7047 119.378 32.1433 119.067 32.719C118.765 33.2856 118.614 33.9435 118.614 34.6928C118.614 35.4421 118.765 36.1001 119.067 36.6666C119.378 37.2332 119.798 37.6718 120.328 37.9825C120.867 38.2841 121.47 38.4348 122.137 38.4348C123.069 38.4348 123.837 38.1561 124.44 37.5987C125.043 37.0413 125.395 36.2874 125.495 35.3371H121.685V34.3227H126.825V35.2822C126.752 36.0681 126.505 36.79 126.085 37.4479C125.664 38.0967 125.112 38.613 124.426 38.9968C123.741 39.3715 122.978 39.5588 122.137 39.5588C121.251 39.5588 120.442 39.3532 119.711 38.942C118.98 38.5216 118.4 37.9414 117.97 37.2012C117.55 36.461 117.34 35.6249 117.34 34.6928C117.34 33.7608 117.55 32.9246 117.97 32.1845C118.4 31.4351 118.98 30.8549 119.711 30.4437C120.442 30.0233 121.251 29.8131 122.137 29.8131C123.151 29.8131 124.047 30.0644 124.824 30.567C125.61 31.0696 126.181 31.7778 126.537 32.6916H125.043ZM136.246 39.4766L133.971 35.5701H132.463V39.4766H131.216V29.9228H134.3C135.022 29.9228 135.629 30.0462 136.123 30.2929C136.625 30.5396 137 30.8732 137.247 31.2935C137.493 31.7138 137.617 32.1936 137.617 32.7327C137.617 33.3907 137.425 33.9709 137.041 34.4735C136.666 34.9761 136.1 35.3096 135.341 35.4741L137.74 39.4766H136.246ZM132.463 34.5695H134.3C134.976 34.5695 135.483 34.405 135.821 34.076C136.159 33.7379 136.328 33.2902 136.328 32.7327C136.328 32.1662 136.159 31.7276 135.821 31.4169C135.492 31.1062 134.985 30.9508 134.3 30.9508H132.463V34.5695ZM147.944 37.352H143.777L143.009 39.4766H141.693L145.147 29.9776H146.587L150.027 39.4766H148.711L147.944 37.352ZM147.587 36.3377L145.86 31.5128L144.133 36.3377H147.587ZM163.965 29.9913V39.4766H162.717V32.4038L159.565 39.4766H158.687L155.521 32.3901V39.4766H154.274V29.9913H155.617L159.126 37.8317L162.635 29.9913H163.965Z" fill="#5138EE"/>
<path d="M42.2973 14.1465C42.2973 12.8019 42.5975 11.6009 43.198 10.5435C43.8116 9.47309 44.6405 8.64415 45.6849 8.05671C46.7422 7.45621 47.9237 7.15596 49.2291 7.15596C50.7564 7.15596 52.0945 7.54759 53.2433 8.33085C54.392 9.1141 55.1949 10.1976 55.6518 11.5814H52.4992C52.1859 10.9286 51.742 10.4391 51.1676 10.1128C50.6063 9.7864 49.9536 9.62322 49.2095 9.62322C48.4132 9.62322 47.7017 9.8125 47.0751 10.1911C46.4616 10.5566 45.9786 11.0788 45.6261 11.7576C45.2867 12.4364 45.117 13.2327 45.117 14.1465C45.117 15.0473 45.2867 15.8436 45.6261 16.5354C45.9786 17.2143 46.4616 17.743 47.0751 18.1215C47.7017 18.4871 48.4132 18.6698 49.2095 18.6698C49.9536 18.6698 50.6063 18.5066 51.1676 18.1803C51.742 17.8409 52.1859 17.3448 52.4992 16.6921H55.6518C55.1949 18.0889 54.392 19.1789 53.2433 19.9622C52.1075 20.7324 50.7695 21.1175 49.2291 21.1175C47.9237 21.1175 46.7422 20.8238 45.6849 20.2363C44.6405 19.6358 43.8116 18.8069 43.198 17.7495C42.5975 16.6921 42.2973 15.4911 42.2973 14.1465ZM64.6509 21L61.6354 15.6739H60.343V21H57.6017V7.3322H62.732C63.7894 7.3322 64.6901 7.52148 65.4342 7.90006C66.1783 8.26557 66.7331 8.76816 67.0986 9.40782C67.4772 10.0344 67.6665 10.7394 67.6665 11.5226C67.6665 12.4234 67.4054 13.2392 66.8832 13.9703C66.3611 14.6883 65.5843 15.1843 64.553 15.4585L67.8231 21H64.6509ZM60.343 13.6178H62.6341C63.3782 13.6178 63.933 13.4416 64.2985 13.0891C64.664 12.7236 64.8468 12.221 64.8468 11.5814C64.8468 10.9548 64.664 10.4717 64.2985 10.1323C63.933 9.77987 63.3782 9.60364 62.6341 9.60364H60.343V13.6178ZM72.4957 9.54489V12.9716H77.0974V15.1452H72.4957V18.7677H77.6848V21H69.7543V7.31261H77.6848V9.54489H72.4957ZM84.5623 7.3322C85.9983 7.3322 87.258 7.61286 88.3415 8.17419C89.4381 8.73553 90.2801 9.53836 90.8675 10.5827C91.468 11.614 91.7683 12.815 91.7683 14.1857C91.7683 15.5564 91.468 16.7574 90.8675 17.7887C90.2801 18.8069 89.4381 19.5967 88.3415 20.158C87.258 20.7193 85.9983 21 84.5623 21H79.7844V7.3322H84.5623ZM84.4644 18.6698C85.9004 18.6698 87.01 18.2782 87.7932 17.4949C88.5765 16.7117 88.9681 15.6086 88.9681 14.1857C88.9681 12.7628 88.5765 11.6532 87.7932 10.8568C87.01 10.0475 85.9004 9.6428 84.4644 9.6428H82.5258V18.6698H84.4644ZM96.1701 7.3322V21H93.4287V7.3322H96.1701ZM107.788 7.3322V9.54489H104.146V21H101.405V9.54489H97.7624V7.3322H107.788ZM118.39 21.1371C117.437 21.1371 116.576 20.9739 115.805 20.6475C115.048 20.3212 114.448 19.8512 114.004 19.2377C113.56 18.6241 113.332 17.8996 113.318 17.0641H116.256C116.295 17.6255 116.491 18.0693 116.843 18.3957C117.209 18.722 117.705 18.8852 118.331 18.8852C118.971 18.8852 119.474 18.7351 119.839 18.4348C120.205 18.1215 120.387 17.7169 120.387 17.2208C120.387 16.8161 120.263 16.4832 120.015 16.2221C119.767 15.9611 119.454 15.7587 119.075 15.6151C118.71 15.4585 118.201 15.2888 117.548 15.106C116.66 14.8449 115.936 14.5904 115.375 14.3423C114.826 14.0812 114.35 13.6961 113.945 13.187C113.553 12.6649 113.358 11.973 113.358 11.1114C113.358 10.302 113.56 9.59711 113.965 8.99661C114.369 8.39612 114.937 7.93922 115.668 7.62592C116.399 7.29956 117.235 7.13638 118.175 7.13638C119.585 7.13638 120.727 7.48232 121.601 8.17419C122.489 8.85302 122.979 9.80598 123.07 11.0331H120.054C120.028 10.5631 119.826 10.178 119.447 9.87778C119.082 9.56447 118.592 9.40782 117.979 9.40782C117.444 9.40782 117.013 9.54489 116.686 9.81903C116.373 10.0932 116.217 10.4913 116.217 11.0135C116.217 11.379 116.334 11.6858 116.569 11.9338C116.817 12.1688 117.117 12.3646 117.47 12.5213C117.835 12.6649 118.344 12.8346 118.997 13.0304C119.885 13.2915 120.609 13.5525 121.171 13.8136C121.732 14.0747 122.215 14.4663 122.62 14.9885C123.024 15.5107 123.227 16.196 123.227 17.0446C123.227 17.7756 123.037 18.4544 122.659 19.081C122.28 19.7076 121.725 20.2102 120.994 20.5888C120.263 20.9543 119.395 21.1371 118.39 21.1371ZM131.556 21.1371C130.277 21.1371 129.102 20.8368 128.031 20.2363C126.961 19.6358 126.112 18.8069 125.486 17.7495C124.859 16.679 124.546 15.4715 124.546 14.1269C124.546 12.7954 124.859 11.6009 125.486 10.5435C126.112 9.47309 126.961 8.63762 128.031 8.03712C129.102 7.43663 130.277 7.13638 131.556 7.13638C132.848 7.13638 134.023 7.43663 135.081 8.03712C136.151 8.63762 136.993 9.47309 137.607 10.5435C138.233 11.6009 138.547 12.7954 138.547 14.1269C138.547 15.4715 138.233 16.679 137.607 17.7495C136.993 18.8069 136.151 19.6358 135.081 20.2363C134.01 20.8368 132.835 21.1371 131.556 21.1371ZM131.556 18.6894C132.379 18.6894 133.103 18.5066 133.73 18.1411C134.356 17.7625 134.846 17.2273 135.198 16.5354C135.551 15.8436 135.727 15.0407 135.727 14.1269C135.727 13.2131 135.551 12.4168 135.198 11.738C134.846 11.0461 134.356 10.5174 133.73 10.1519C133.103 9.7864 132.379 9.60364 131.556 9.60364C130.734 9.60364 130.003 9.7864 129.363 10.1519C128.736 10.5174 128.247 11.0461 127.894 11.738C127.542 12.4168 127.366 13.2131 127.366 14.1269C127.366 15.0407 127.542 15.8436 127.894 16.5354C128.247 17.2273 128.736 17.7625 129.363 18.1411C130.003 18.5066 130.734 18.6894 131.556 18.6894ZM142.936 18.8265H147.44V21H140.195V7.3322H142.936V18.8265ZM151.493 7.3322V15.7914C151.493 16.7182 151.734 17.4297 152.217 17.9257C152.7 18.4087 153.379 18.6502 154.254 18.6502C155.141 18.6502 155.827 18.4087 156.31 17.9257C156.793 17.4297 157.034 16.7182 157.034 15.7914V7.3322H159.795V15.7718C159.795 16.9336 159.541 17.9192 159.032 18.7286C158.535 19.5249 157.863 20.1254 157.015 20.53C156.179 20.9347 155.246 21.1371 154.215 21.1371C153.196 21.1371 152.269 20.9347 151.434 20.53C150.612 20.1254 149.959 19.5249 149.476 18.7286C148.993 17.9192 148.751 16.9336 148.751 15.7718V7.3322H151.493ZM171.353 7.3322V9.54489H167.711V21H164.97V9.54489H161.328V7.3322H171.353ZM175.703 7.3322V21H172.962V7.3322H175.703ZM184.365 21.1371C183.085 21.1371 181.91 20.8368 180.84 20.2363C179.77 19.6358 178.921 18.8069 178.294 17.7495C177.668 16.679 177.354 15.4715 177.354 14.1269C177.354 12.7954 177.668 11.6009 178.294 10.5435C178.921 9.47309 179.77 8.63762 180.84 8.03712C181.91 7.43663 183.085 7.13638 184.365 7.13638C185.657 7.13638 186.832 7.43663 187.889 8.03712C188.96 8.63762 189.802 9.47309 190.415 10.5435C191.042 11.6009 191.355 12.7954 191.355 14.1269C191.355 15.4715 191.042 16.679 190.415 17.7495C189.802 18.8069 188.96 19.6358 187.889 20.2363C186.819 20.8368 185.644 21.1371 184.365 21.1371ZM184.365 18.6894C185.187 18.6894 185.912 18.5066 186.538 18.1411C187.165 17.7625 187.654 17.2273 188.007 16.5354C188.359 15.8436 188.535 15.0407 188.535 14.1269C188.535 13.2131 188.359 12.4168 188.007 11.738C187.654 11.0461 187.165 10.5174 186.538 10.1519C185.912 9.7864 185.187 9.60364 184.365 9.60364C183.542 9.60364 182.811 9.7864 182.172 10.1519C181.545 10.5174 181.055 11.0461 180.703 11.738C180.35 12.4168 180.174 13.2131 180.174 14.1269C180.174 15.0407 180.35 15.8436 180.703 16.5354C181.055 17.2273 181.545 17.7625 182.172 18.1411C182.811 18.5066 183.542 18.6894 184.365 18.6894ZM204.693 21H201.952L195.744 11.6205V21H193.003V7.31261H195.744L201.952 16.7117V7.31261H204.693V21Z" fill="#6246EA"/>
<line x1="41.3315" y1="34.757" x2="72.6618" y2="34.757" stroke="#5138EE" stroke-width="0.979069"/>
<line x1="172.527" y1="34.757" x2="203.857" y2="34.757" stroke="#5138EE" stroke-width="0.979069"/>
</svg>
