<svg width="939" height="469" viewBox="0 0 939 469" fill="none" xmlns="http://www.w3.org/2000/svg">
<path d="M777.155 6.7722C854.467 20.3802 906.421 60.9207 926.831 101.745C946.624 142.569 934.872 183.676 932.398 223.65C929.306 263.907 934.872 303.313 903.328 335.065C872.404 366.817 803.75 391.198 728.911 414.729C654.692 438.259 574.905 461.223 487.078 467.176C399.251 473.413 303.384 462.64 221.742 441.094C140.1 419.548 72.0645 386.946 36.1915 348.957C-0.299987 310.968 -5.24799 267.592 5.26651 227.335C16.3995 187.078 42.3765 149.373 83.816 115.636C125.255 81.6162 182.158 51.5652 252.667 35.9727C323.794 20.6637 409.147 20.0967 503.159 13.0092C597.171 6.20522 699.842 -7.1193 777.155 6.7722Z" fill="#EEF0FF"/>
</svg>
