<svg width="15" height="10" viewBox="0 0 15 10" fill="none" xmlns="http://www.w3.org/2000/svg">
<path fillRule="evenodd" clipRule="evenodd" d="M0.410206 1.37235C0.672745 1.10989 1.02878 0.962449 1.40001 0.962449C1.77124 0.962449 2.12727 1.10989 2.38981 1.37235L7.00001 5.98255L11.6102 1.37235C11.7394 1.23864 11.8938 1.13198 12.0646 1.05861C12.2354 0.985235 12.4192 0.946614 12.605 0.944999C12.7909 0.943384 12.9753 0.978806 13.1473 1.0492C13.3194 1.11959 13.4757 1.22355 13.6072 1.355C13.7386 1.48645 13.8426 1.64276 13.913 1.81481C13.9833 1.98687 14.0188 2.17122 14.0172 2.35711C14.0155 2.543 13.9769 2.72671 13.9035 2.89752C13.8302 3.06832 13.7235 3.2228 13.5898 3.35195L7.98981 8.95195C7.72727 9.21441 7.37124 9.36185 7.00001 9.36185C6.62878 9.36185 6.27275 9.21441 6.01021 8.95195L0.410206 3.35195C0.147747 3.08941 0.000305176 2.73338 0.000305176 2.36215C0.000305176 1.99092 0.147747 1.63489 0.410206 1.37235Z" fill="#111928"/>
</svg>
