<svg width="15" height="10" viewBox="0 0 15 10" fill="none" xmlns="http://www.w3.org/2000/svg">
<path fillRule="evenodd" clipRule="evenodd" d="M14.5898 8.78982C14.3273 9.05228 13.9712 9.19972 13.6 9.19972C13.2288 9.19972 12.8727 9.05228 12.6102 8.78982L7.99999 4.17962L3.38979 8.78982C3.26065 8.92353 3.10617 9.03019 2.93536 9.10356C2.76455 9.17693 2.58085 9.21555 2.39496 9.21717C2.20906 9.21879 2.02471 9.18336 1.85266 9.11297C1.6806 9.04258 1.52429 8.93862 1.39284 8.80717C1.26139 8.67572 1.15744 8.51941 1.08704 8.34736C1.01665 8.1753 0.981228 7.99095 0.982843 7.80506C0.984458 7.61917 1.02308 7.43546 1.09645 7.26465C1.16982 7.09385 1.27648 6.93937 1.41019 6.81022L7.0102 1.21022C7.27273 0.947761 7.62876 0.800319 7.99999 0.800319C8.37122 0.800319 8.72726 0.947761 8.98979 1.21022L14.5898 6.81022C14.8523 7.07276 14.9997 7.42879 14.9997 7.80002C14.9997 8.17125 14.8523 8.52728 14.5898 8.78982Z" fill="#111928"/>
</svg>
