<svg width="17" height="16" viewBox="0 0 17 16" fill="none" xmlns="http://www.w3.org/2000/svg">
<path fillRule="evenodd" clipRule="evenodd" d="M8.5 16C10.6217 16 12.6566 15.1571 14.1569 13.6569C15.6571 12.1566 16.5 10.1217 16.5 8C16.5 5.87827 15.6571 3.84344 14.1569 2.34315C12.6566 0.842855 10.6217 0 8.5 0C6.37827 0 4.34344 0.842855 2.84315 2.34315C1.34285 3.84344 0.5 5.87827 0.5 8C0.5 10.1217 1.34285 12.1566 2.84315 13.6569C4.34344 15.1571 6.37827 16 8.5 16ZM12.207 7.293L9.207 4.293C9.0184 4.11084 8.7658 4.01005 8.5036 4.01233C8.2414 4.0146 7.99059 4.11977 7.80518 4.30518C7.61977 4.49059 7.5146 4.7414 7.51233 5.0036C7.51005 5.2658 7.61084 5.5184 7.793 5.707L9.086 7H5.5C5.23478 7 4.98043 7.10536 4.79289 7.29289C4.60536 7.48043 4.5 7.73478 4.5 8C4.5 8.26522 4.60536 8.51957 4.79289 8.70711C4.98043 8.89464 5.23478 9 5.5 9H9.086L7.793 10.293C7.69749 10.3852 7.62131 10.4956 7.5689 10.6176C7.51649 10.7396 7.4889 10.8708 7.48775 11.0036C7.4866 11.1364 7.5119 11.2681 7.56218 11.391C7.61246 11.5139 7.68671 11.6255 7.78061 11.7194C7.8745 11.8133 7.98615 11.8875 8.10905 11.9378C8.23194 11.9881 8.36362 12.0134 8.4964 12.0123C8.62918 12.0111 8.7604 11.9835 8.8824 11.9311C9.00441 11.8787 9.11475 11.8025 9.207 11.707L12.207 8.707C12.3945 8.51947 12.4998 8.26516 12.4998 8C12.4998 7.73484 12.3945 7.48053 12.207 7.293Z" fill="white"/>
</svg>
