<svg width="16" height="16" viewBox="0 0 16 16" fill="none" xmlns="http://www.w3.org/2000/svg">
<path fill-rule="evenodd" clip-rule="evenodd" d="M8 16C10.1217 16 12.1566 15.1571 13.6569 13.6569C15.1571 12.1566 16 10.1217 16 8C16 5.87827 15.1571 3.84344 13.6569 2.34315C12.1566 0.842855 10.1217 0 8 0C5.87827 0 3.84344 0.842855 2.34315 2.34315C0.842855 3.84344 0 5.87827 0 8C0 10.1217 0.842855 12.1566 2.34315 13.6569C3.84344 15.1571 5.87827 16 8 16ZM11.707 7.293L8.707 4.293C8.5184 4.11084 8.2658 4.01005 8.0036 4.01233C7.7414 4.0146 7.49059 4.11977 7.30518 4.30518C7.11977 4.49059 7.0146 4.7414 7.01233 5.0036C7.01005 5.2658 7.11084 5.5184 7.293 5.707L8.586 7H5C4.73478 7 4.48043 7.10536 4.29289 7.29289C4.10536 7.48043 4 7.73478 4 8C4 8.26522 4.10536 8.51957 4.29289 8.70711C4.48043 8.89464 4.73478 9 5 9H8.586L7.293 10.293C7.19749 10.3852 7.12131 10.4956 7.0689 10.6176C7.01649 10.7396 6.9889 10.8708 6.98775 11.0036C6.9866 11.1364 7.0119 11.2681 7.06218 11.391C7.11246 11.5139 7.18671 11.6255 7.28061 11.7194C7.3745 11.8133 7.48615 11.8875 7.60905 11.9378C7.73194 11.9881 7.86362 12.0134 7.9964 12.0123C8.12918 12.0111 8.2604 11.9835 8.3824 11.9311C8.50441 11.8787 8.61475 11.8025 8.707 11.707L11.707 8.707C11.8945 8.51947 11.9998 8.26516 11.9998 8C11.9998 7.73484 11.8945 7.48053 11.707 7.293Z" fill="#111928"/>
</svg>
