<svg width="21" height="21" viewBox="0 0 21 21" fill="none" xmlns="http://www.w3.org/2000/svg">
<path fill-rule="evenodd" clip-rule="evenodd" d="M10.5 18.3765C12.6217 18.3765 14.6566 17.5336 16.1569 16.0333C17.6571 14.533 18.5 12.4982 18.5 10.3765C18.5 8.25473 17.6571 6.2199 16.1569 4.71961C14.6566 3.21932 12.6217 2.37646 10.5 2.37646C8.37827 2.37646 6.34344 3.21932 4.84315 4.71961C3.34285 6.2199 2.5 8.25473 2.5 10.3765C2.5 12.4982 3.34285 14.533 4.84315 16.0333C6.34344 17.5336 8.37827 18.3765 10.5 18.3765ZM14.207 9.66947L11.207 6.66947C11.0184 6.48731 10.7658 6.38651 10.5036 6.38879C10.2414 6.39107 9.99059 6.49624 9.80518 6.68165C9.61977 6.86705 9.5146 7.11787 9.51233 7.38006C9.51005 7.64226 9.61084 7.89486 9.793 8.08346L11.086 9.37646H7.5C7.23478 9.37646 6.98043 9.48182 6.79289 9.66936C6.60536 9.85689 6.5 10.1112 6.5 10.3765C6.5 10.6417 6.60536 10.896 6.79289 11.0836C6.98043 11.2711 7.23478 11.3765 7.5 11.3765H11.086L9.793 12.6695C9.69749 12.7617 9.62131 12.8721 9.5689 12.9941C9.51649 13.1161 9.4889 13.2473 9.48775 13.3801C9.4866 13.5128 9.5119 13.6445 9.56218 13.7674C9.61246 13.8903 9.68671 14.002 9.78061 14.0959C9.8745 14.1898 9.98615 14.264 10.109 14.3143C10.2319 14.3646 10.3636 14.3899 10.4964 14.3887C10.6292 14.3876 10.7604 14.36 10.8824 14.3076C11.0044 14.2552 11.1148 14.179 11.207 14.0835L14.207 11.0835C14.3945 10.8959 14.4998 10.6416 14.4998 10.3765C14.4998 10.1113 14.3945 9.85699 14.207 9.66947Z" fill="#FAFAFE"/>
</svg>
