<svg width="87" height="90" viewBox="0 0 87 90" fill="none" xmlns="http://www.w3.org/2000/svg">
<path d="M5.4945 63.3104H20.145C21.156 63.3104 22.557 63.8909 23.271 64.6049L40.0665 81.4019C42.2115 83.5454 43.9515 82.8239 43.9515 79.7924V10.2014C43.9515 7.16989 42.2115 6.44839 40.0665 8.59339L23.271 25.3889C22.557 26.1044 21.156 26.6834 20.145 26.6834H5.4945C2.4615 26.6834 0 29.1464 0 32.1779V57.8159C0 60.8489 2.4615 63.3104 5.4945 63.3104Z" fill="white"/>
<path fill-rule="evenodd" clip-rule="evenodd" d="M79.6619 44.9999C79.6619 36.7229 77.0429 28.6469 72.1724 21.9434C67.3919 15.3509 60.7079 10.3514 53.0354 7.6229L51.2999 7.0079C50.3474 6.6704 49.8494 5.6219 50.1869 4.6709L51.4139 1.2179C51.7529 0.265396 52.8014 -0.232604 53.7524 0.106396L55.4714 0.718396C64.5539 3.9419 72.4469 9.8384 78.1064 17.6399C83.8739 25.5884 86.9879 35.1659 86.9879 44.9999C86.9879 54.8159 83.8739 64.3934 78.1064 72.3419C72.4469 80.1434 64.5539 86.0579 55.4714 89.2814L53.7524 89.8934C52.8014 90.2324 51.7529 89.7344 51.4139 88.7819L50.1869 85.3289C49.8494 84.3779 50.3474 83.3294 51.2999 82.9919L53.0354 82.3769C60.7079 79.6484 67.3919 74.6489 72.1724 68.0564C77.0429 61.3529 79.6619 53.2769 79.6619 44.9999Z" fill="white"/>
<path d="M52.614 26.2289L50.9715 25.4039C50.0685 24.9494 49.704 23.8469 50.1585 22.9439L51.81 19.6604C52.263 18.7574 53.364 18.3944 54.267 18.8504L55.8915 19.6724C60.672 22.0724 64.737 25.6424 67.74 30.0569C70.707 34.4699 72.3195 39.6704 72.3375 44.9999C72.3195 50.3294 70.707 55.5119 67.74 59.9249C64.737 64.3379 60.672 67.9094 55.8915 70.3094L54.267 71.1299C53.364 71.5859 52.263 71.2244 51.8085 70.3214L50.16 67.0544C49.7055 66.1514 50.0685 65.0504 50.9715 64.5959L52.614 63.7709C56.259 61.9394 59.3715 59.1929 61.6785 55.8224C63.822 52.6184 64.9935 48.8639 65.0115 44.9999C64.9935 41.1359 63.822 37.3634 61.6785 34.1774C59.3715 30.7889 56.259 28.0604 52.614 26.2289Z" fill="white"/>
</svg>
