<svg width="16" height="16" viewBox="0 0 16 16" fill="none" xmlns="http://www.w3.org/2000/svg">
<path fill-rule="evenodd" clip-rule="evenodd" d="M4.23447 5.83432C4.3845 5.68434 4.58794 5.60009 4.80007 5.60009C5.0122 5.60009 5.21565 5.68434 5.36567 5.83432L8.00007 8.46872L10.6345 5.83432C10.7083 5.75791 10.7965 5.69696 10.8941 5.65504C10.9918 5.61311 11.0967 5.59104 11.203 5.59012C11.3092 5.5892 11.4145 5.60944 11.5128 5.64966C11.6112 5.68989 11.7005 5.74929 11.7756 5.8244C11.8507 5.89952 11.9101 5.98884 11.9503 6.08716C11.9906 6.18547 12.0108 6.29082 12.0099 6.39704C12.009 6.50326 11.9869 6.60824 11.945 6.70584C11.903 6.80345 11.8421 6.89172 11.7657 6.96552L8.56567 10.1655C8.41565 10.3155 8.2122 10.3997 8.00007 10.3997C7.78794 10.3997 7.5845 10.3155 7.43447 10.1655L4.23447 6.96552C4.0845 6.8155 4.00024 6.61205 4.00024 6.39992C4.00024 6.18779 4.0845 5.98434 4.23447 5.83432Z" fill="#27272A"/>
</svg>
