<svg width="67" height="67" viewBox="0 0 67 67" fill="none" xmlns="http://www.w3.org/2000/svg">
<path d="M39.9386 32.5054C42.9746 29.4694 44.859 25.2296 44.859 20.571C44.859 11.2538 37.3215 3.71631 28.0043 3.71631L20.2574 3.71631H17.9543C13.2957 3.71631 9.10818 5.60068 6.0199 8.63662C5.28709 9.36943 4.60662 10.1546 4.03083 10.9921C2.14646 13.714 1.04724 17.0116 1.04724 20.5187C1.04724 26.2241 3.8738 31.3015 8.21833 34.3374C7.27615 36.7452 5.86287 38.9436 4.18787 40.828C3.71677 41.3515 4.08318 42.189 4.76365 42.189C9.99802 42.189 14.8136 40.4093 18.6347 37.3733H27.9519C32.7152 37.4257 36.9027 35.5413 39.9386 32.5054Z" fill="#E4E4E7"/>
<path d="M65.9011 40.1999C65.9011 38.996 65.7441 37.7921 65.5347 36.5882C64.7495 33.0288 62.8652 29.8358 60.1956 27.5327C57.212 24.9155 53.3386 23.3452 49.0988 23.3452H48.2613C47.6855 27.7421 45.6441 31.7726 42.5034 34.9655C38.5777 38.7866 33.5003 40.9327 28.0566 40.9327H22.1417C22.3511 46.3241 25.1253 51.0874 29.3128 54.0187C32.0347 55.9554 35.3847 57.0546 38.9964 57.0546H47.0574C50.2503 60.771 54.9089 63.1265 60.1433 63.2835C58.3636 60.9804 57.1074 58.2585 56.5839 55.2749C58.2066 54.4374 59.7245 53.3905 60.9808 52.1343C64.0167 49.046 65.9011 44.8585 65.9011 40.1999Z" fill="#E4E4E7"/>
</svg>
