<svg width="35" height="35" viewBox="0 0 35 35" fill="none" xmlns="http://www.w3.org/2000/svg">
<path d="M13.9457 16.9877C12.3812 15.4232 11.4101 13.2382 11.4101 10.8375C11.4101 6.03597 15.2944 2.15161 20.0959 2.15161H24.0882H25.2751C27.6758 2.15161 29.8338 3.1227 31.4253 4.68723C31.803 5.06488 32.1536 5.4695 32.4504 5.9011C33.4214 7.30378 33.9879 9.00319 33.9879 10.8105C33.9879 13.7507 32.5313 16.3673 30.2924 17.9318C30.7779 19.1727 31.5062 20.3056 32.3694 21.2767C32.6122 21.5464 32.4234 21.978 32.0727 21.978C29.3752 21.978 26.8936 21.0609 24.9244 19.4964H20.1229C17.6682 19.5233 15.5102 18.5522 13.9457 16.9877Z" fill="#30D1CE"/>
<path d="M0.56632 20.9527C0.56632 20.3323 0.647247 19.7119 0.755146 19.0914C1.15977 17.2572 2.13086 15.6117 3.50657 14.4248C5.04413 13.0761 7.04025 12.2668 9.22521 12.2668H9.6568C9.95352 14.5327 11.0055 16.6098 12.624 18.2552C14.6471 20.2244 17.2637 21.3303 20.069 21.3303H23.1172C23.0093 24.1087 21.5796 26.5634 19.4217 28.074C18.019 29.0721 16.2926 29.6386 14.4313 29.6386H10.2772C8.63176 31.5538 6.23101 32.7676 3.53354 32.8486C4.45068 31.6617 5.09807 30.259 5.36782 28.7214C4.5316 28.2898 3.74934 27.7503 3.10195 27.1029C1.53741 25.5114 0.56632 23.3535 0.56632 20.9527Z" fill="#30D1CE"/>
</svg>
