<svg width="20" height="21" viewBox="0 0 20 21" fill="none" xmlns="http://www.w3.org/2000/svg">
<path fill-rule="evenodd" clip-rule="evenodd" d="M4 4.5C4 3.96957 4.21071 3.46086 4.58579 3.08579C4.96086 2.71071 5.46957 2.5 6 2.5H10.586C11.1164 2.50011 11.625 2.7109 12 3.086L15.414 6.5C15.7891 6.87499 15.9999 7.38361 16 7.914V16.5C16 17.0304 15.7893 17.5391 15.4142 17.9142C15.0391 18.2893 14.5304 18.5 14 18.5H6C5.46957 18.5 4.96086 18.2893 4.58579 17.9142C4.21071 17.5391 4 17.0304 4 16.5V4.5ZM6 10.5C6 10.2348 6.10536 9.98043 6.29289 9.79289C6.48043 9.60536 6.73478 9.5 7 9.5H13C13.2652 9.5 13.5196 9.60536 13.7071 9.79289C13.8946 9.98043 14 10.2348 14 10.5C14 10.7652 13.8946 11.0196 13.7071 11.2071C13.5196 11.3946 13.2652 11.5 13 11.5H7C6.73478 11.5 6.48043 11.3946 6.29289 11.2071C6.10536 11.0196 6 10.7652 6 10.5ZM7 13.5C6.73478 13.5 6.48043 13.6054 6.29289 13.7929C6.10536 13.9804 6 14.2348 6 14.5C6 14.7652 6.10536 15.0196 6.29289 15.2071C6.48043 15.3946 6.73478 15.5 7 15.5H13C13.2652 15.5 13.5196 15.3946 13.7071 15.2071C13.8946 15.0196 14 14.7652 14 14.5C14 14.2348 13.8946 13.9804 13.7071 13.7929C13.5196 13.6054 13.2652 13.5 13 13.5H7Z" fill="#111928"/>
</svg>
