<svg width="35" height="35" viewBox="0 0 35 35" fill="none" xmlns="http://www.w3.org/2000/svg">
<path fill-rule="evenodd" clip-rule="evenodd" d="M15.6061 2.57079C15.6619 1.28387 16.7503 0.285819 18.0372 0.341583C24.9527 0.641239 31.0345 5.02205 33.4659 11.4834C35.9939 18.2016 34.055 25.7723 28.6058 30.4717C26.9825 31.8717 25.1262 32.9484 23.1266 33.6624C18.5119 35.3101 13.3858 34.942 9.03189 32.5911C2.69445 29.1692 -0.839939 22.1937 0.171334 15.0928C0.352949 13.8175 1.53398 12.9309 2.80924 13.1126C4.0845 13.2942 4.97107 14.4752 4.78945 15.7505C4.05406 20.9142 6.62638 25.991 11.2482 28.4865C14.4318 30.2055 18.1819 30.4748 21.558 29.2693C23.0187 28.7478 24.3735 27.9619 25.5593 26.9392C29.5285 23.5162 30.9383 18.0114 29.1001 13.1263C27.3464 8.46606 22.9774 5.28502 17.9867 5.00939L17.8353 5.00193C16.5484 4.94616 15.5503 3.8577 15.6061 2.57079Z" fill="#30D1CE"/>
</svg>
