<svg width="24" height="28" viewBox="0 0 24 28" fill="none" xmlns="http://www.w3.org/2000/svg">
<g clip-path="url(#clip0_936_7023)">
<path d="M1.71429 0H16.2797L24 7.64659V25.5682C24 26.5099 23.232 27.2727 22.2857 27.2727H1.71429C0.768 27.2727 0 26.5099 0 25.5682V1.70455C0 0.762784 0.768 0 1.71429 0Z" fill="#E2574C"/>
<path d="M23.9751 7.6705H17.9999C17.0536 7.6705 16.2856 6.90686 16.2856 5.96595V0.0170898L23.9751 7.6705Z" fill="#B53629"/>
<path d="M17.5694 12.923C17.8566 12.923 17.9972 12.6741 17.9972 12.4329C17.9972 12.1832 17.8506 11.942 17.5694 11.942H15.934C15.6143 11.942 15.436 12.2054 15.436 12.496V16.4923C15.436 16.8486 15.64 17.0463 15.916 17.0463C16.1903 17.0463 16.3952 16.8486 16.3952 16.4923V15.3954H17.3843C17.6912 15.3954 17.8446 15.1457 17.8446 14.8977C17.8446 14.6548 17.6912 14.4136 17.3843 14.4136H16.3952V12.923H17.5694ZM12.0417 11.942H10.8452C10.5203 11.942 10.2897 12.1636 10.2897 12.4926V16.4957C10.2897 16.904 10.6214 17.0318 10.8589 17.0318H12.1146C13.6009 17.0318 14.5823 16.0593 14.5823 14.5585C14.5814 12.9716 13.6574 11.942 12.0417 11.942ZM12.0992 16.0449H11.3697V12.9289H12.0272C13.0223 12.9289 13.4552 13.5929 13.4552 14.5091C13.4552 15.3665 13.03 16.0449 12.0992 16.0449ZM7.71573 11.942H6.5303C6.19516 11.942 6.0083 12.1619 6.0083 12.496V16.4923C6.0083 16.8486 6.22259 17.0463 6.51059 17.0463C6.79859 17.0463 7.01287 16.8486 7.01287 16.4923V15.3255H7.75602C8.67316 15.3255 9.43002 14.6795 9.43002 13.6406C9.43002 12.6238 8.69973 11.942 7.71573 11.942ZM7.69602 14.388H7.01287V12.8804H7.69602C8.11773 12.8804 8.38602 13.2076 8.38602 13.6346C8.38516 14.0608 8.11773 14.388 7.69602 14.388Z" fill="white"/>
</g>
<defs>
<clipPath id="clip0_936_7023">
<rect width="24" height="27.2727" fill="white"/>
</clipPath>
</defs>
</svg>
