<svg width="19" height="18" viewBox="0 0 19 18" fill="none" xmlns="http://www.w3.org/2000/svg">
<path d="M16.7215 7.28532C16.7937 6.92466 16.5051 6.49187 16.1445 6.49187L12.033 5.91482L10.1576 2.164C10.0855 2.01974 10.0133 1.94761 9.86906 1.87548C9.50841 1.65908 9.07562 1.80334 8.85923 2.164L7.05595 5.91482L2.94447 6.49187C2.72808 6.49187 2.58381 6.564 2.51168 6.70827C2.22316 6.99679 2.22316 7.42958 2.51168 7.7181L5.46906 10.6034L4.74775 14.7148C4.74775 14.8591 4.74775 15.0034 4.81988 15.1476C5.03627 15.5083 5.46906 15.6525 5.82972 15.4361L9.50841 13.4886L13.1871 15.4361C13.2592 15.5083 13.4035 15.5083 13.5478 15.5083C13.6199 15.5083 13.6199 15.5083 13.692 15.5083C14.0527 15.4361 14.3412 15.0755 14.2691 14.6427L13.5478 10.5312L16.5051 7.64597C16.6494 7.57384 16.7215 7.42958 16.7215 7.28532Z" fill="#423E57"/>
</svg>
