<svg width="21" height="20" viewBox="0 0 21 20" fill="none" xmlns="http://www.w3.org/2000/svg">
<path d="M11.5 3C11.2347 3 10.9804 3.10536 10.7929 3.29289C10.6053 3.48043 10.5 3.73478 10.5 4C10.5 4.26522 10.6053 4.51957 10.7929 4.70711C10.9804 4.89464 11.2347 5 11.5 5H14.086L7.79296 11.293C7.69745 11.3852 7.62127 11.4956 7.56886 11.6176C7.51645 11.7396 7.48886 11.8708 7.48771 12.0036C7.48655 12.1364 7.51186 12.2681 7.56214 12.391C7.61242 12.5139 7.68667 12.6255 7.78056 12.7194C7.87446 12.8133 7.98611 12.8875 8.10901 12.9378C8.2319 12.9881 8.36358 13.0134 8.49636 13.0123C8.62914 13.0111 8.76036 12.9835 8.88236 12.9311C9.00437 12.8787 9.11471 12.8025 9.20696 12.707L15.5 6.414V9C15.5 9.26522 15.6053 9.51957 15.7929 9.70711C15.9804 9.89464 16.2347 10 16.5 10C16.7652 10 17.0195 9.89464 17.2071 9.70711C17.3946 9.51957 17.5 9.26522 17.5 9V4C17.5 3.73478 17.3946 3.48043 17.2071 3.29289C17.0195 3.10536 16.7652 3 16.5 3H11.5Z" fill="white"/>
<path d="M5.5 5C4.96957 5 4.46086 5.21071 4.08579 5.58579C3.71071 5.96086 3.5 6.46957 3.5 7V15C3.5 15.5304 3.71071 16.0391 4.08579 16.4142C4.46086 16.7893 4.96957 17 5.5 17H13.5C14.0304 17 14.5391 16.7893 14.9142 16.4142C15.2893 16.0391 15.5 15.5304 15.5 15V12C15.5 11.7348 15.3946 11.4804 15.2071 11.2929C15.0196 11.1054 14.7652 11 14.5 11C14.2348 11 13.9804 11.1054 13.7929 11.2929C13.6054 11.4804 13.5 11.7348 13.5 12V15H5.5V7H8.5C8.76522 7 9.01957 6.89464 9.20711 6.70711C9.39464 6.51957 9.5 6.26522 9.5 6C9.5 5.73478 9.39464 5.48043 9.20711 5.29289C9.01957 5.10536 8.76522 5 8.5 5H5.5Z" fill="white"/>
</svg>
