<svg width="18" height="19" viewBox="0 0 18 19" fill="none" xmlns="http://www.w3.org/2000/svg">
<g clip-path="url(#clip0_2054_11293)">
<path d="M18 9.5C18 4.52944 13.9706 0.5 9 0.5C4.02944 0.5 0 4.52944 0 9.5C0 13.9922 3.29117 17.7155 7.59375 18.3906V12.1016H5.30859V9.5H7.59375V7.51719C7.59375 5.26156 8.9374 4.01562 10.9932 4.01562C11.9779 4.01562 13.0078 4.19141 13.0078 4.19141V6.40625H11.8729C10.7549 6.40625 10.4062 7.1 10.4062 7.81175V9.5H12.9023L12.5033 12.1016H10.4062V18.3906C14.7088 17.7155 18 13.9922 18 9.5Z" fill="#1877F2"/>
<path d="M12.5033 12.1016L12.9023 9.5H10.4062V7.81175C10.4062 7.1 10.7549 6.40625 11.8729 6.40625H13.0078V4.19141C13.0078 4.19141 11.9779 4.01562 10.9932 4.01562C8.9374 4.01562 7.59375 5.26156 7.59375 7.51719V9.5H5.30859V12.1016H7.59375V18.3906C8.52558 18.5365 9.47442 18.5365 10.4062 18.3906V12.1016H12.5033Z" fill="white"/>
</g>
<defs>
<clipPath id="clip0_2054_11293">
<rect width="18" height="18" fill="white" transform="translate(0 0.5)"/>
</clipPath>
</defs>
</svg>
