<svg width="34" height="35" viewBox="0 0 34 35" fill="none" xmlns="http://www.w3.org/2000/svg">
<path fill-rule="evenodd" clip-rule="evenodd" d="M13.625 4.33288C13.1671 4.45354 12.7837 4.76591 12.5704 5.19071C11.7721 6.78909 11.1754 7.7594 10.5754 8.54619C9.96708 9.34289 9.32576 9.99411 8.34723 10.971C6.08935 13.2305 4.95874 16.1942 4.95874 19.153C4.95874 22.1117 6.08935 25.0754 8.34723 27.3349C12.8663 31.8524 20.192 31.8524 24.7111 27.3349C26.969 25.0754 28.0996 22.1117 28.0996 19.153C28.0996 16.1942 26.969 13.2305 24.7111 10.971C24.2384 10.4983 23.5276 10.3577 22.9094 10.614C22.2913 10.8685 21.8896 11.4719 21.8896 12.1397C21.8896 13.9909 21.7739 15.4008 21.2317 16.5265C20.9342 17.1447 20.4697 17.7497 19.6697 18.2902C19.478 16.5364 19.1276 14.3992 18.6548 12.3727C18.2829 10.776 17.8201 9.18255 17.268 7.8536C16.992 7.18748 16.6796 6.55602 16.3259 6.0089C15.9821 5.47666 15.5391 4.93625 14.9672 4.55442C14.5721 4.29161 14.0829 4.21056 13.625 4.33288ZM13.0233 25.9646C14.9589 27.9018 18.0995 27.9018 20.035 25.9646C21.0036 24.9976 21.4879 23.7282 21.4879 22.4588C21.4879 22.4588 20.035 23.2853 17.3556 23.2853C17.3556 21.6323 16.5292 16.6736 15.2895 15.8471C14.463 17.5 13.9903 17.9844 13.0233 18.953C12.0547 19.92 11.5704 21.1894 11.5704 22.4588C11.5704 23.7282 12.0547 24.9976 13.0233 25.9646Z" fill="#30D1CE"/>
</svg>
