<svg width="18" height="18" viewBox="0 0 18 18" fill="none" xmlns="http://www.w3.org/2000/svg">
<path d="M16.4756 7.28532C16.5477 6.92466 16.2592 6.49187 15.8985 6.49187L11.787 5.91482L9.91162 2.164C9.83949 2.01974 9.76736 1.94761 9.62309 1.87548C9.26244 1.65908 8.82965 1.80334 8.61326 2.164L6.80998 5.91482L2.6985 6.49187C2.4821 6.49187 2.33784 6.564 2.26571 6.70827C1.97719 6.99679 1.97719 7.42958 2.26571 7.7181L5.22309 10.6034L4.50178 14.7148C4.50178 14.8591 4.50178 15.0034 4.57391 15.1476C4.7903 15.5083 5.22309 15.6525 5.58375 15.4361L9.26244 13.4886L12.9411 15.4361C13.0133 15.5083 13.1575 15.5083 13.3018 15.5083C13.3739 15.5083 13.3739 15.5083 13.446 15.5083C13.8067 15.4361 14.0952 15.0755 14.0231 14.6427L13.3018 10.5312L16.2592 7.64597C16.4034 7.57384 16.4756 7.42958 16.4756 7.28532Z" fill="#8C899E"/>
</svg>
