<svg width="18" height="19" viewBox="0 0 18 19" fill="none" xmlns="http://www.w3.org/2000/svg">
<g clip-path="url(#clip0_2054_11316)">
<path d="M17.9909 9.67233C17.9909 8.91768 17.9297 8.36698 17.7971 7.7959H9.17969V11.202H14.2379C14.136 12.0485 13.5853 13.3233 12.3615 14.1798L12.3443 14.2939L15.069 16.4046L15.2578 16.4235C16.9914 14.8224 17.9909 12.4666 17.9909 9.67233Z" fill="#4285F4"/>
<path d="M9.17929 18.6469C11.6574 18.6469 13.7378 17.831 15.2574 16.4237L12.3611 14.18C11.586 14.7205 10.5458 15.0978 9.17929 15.0978C6.75215 15.0978 4.69215 13.4967 3.95782 11.2837L3.85018 11.2928L1.01703 13.4855L0.97998 13.5885C2.48929 16.5868 5.58952 18.6469 9.17929 18.6469Z" fill="#34A853"/>
<path d="M3.95734 11.2837C3.76358 10.7126 3.65144 10.1007 3.65144 9.46845C3.65144 8.83613 3.76358 8.22426 3.94714 7.65317L3.94201 7.53154L1.07335 5.30371L0.979489 5.34835C0.357428 6.59255 0.000488281 7.98972 0.000488281 9.46845C0.000488281 10.9472 0.357428 12.3443 0.979489 13.5885L3.95734 11.2837Z" fill="#FBBC05"/>
<path d="M9.17937 3.83896C10.9028 3.83896 12.0654 4.58342 12.7283 5.20554L15.3187 2.6764C13.7278 1.19767 11.6575 0.290039 9.17937 0.290039C5.58957 0.290039 2.4893 2.35004 0.97998 5.34826L3.94765 7.65307C4.69219 5.44008 6.75221 3.83896 9.17937 3.83896Z" fill="#EB4335"/>
</g>
<defs>
<clipPath id="clip0_2054_11316">
<rect width="18" height="18.42" fill="white" transform="translate(0 0.290039)"/>
</clipPath>
</defs>
</svg>
