<svg width="24" height="25" viewBox="0 0 24 25" fill="none" xmlns="http://www.w3.org/2000/svg">
<g clip-path="url(#clip0_1999_9805)">
<path d="M23.9875 12.5097C23.9875 11.5035 23.9059 10.7693 23.7292 10.0078H12.2393V14.5493H18.9836C18.8477 15.6779 18.1134 17.3776 16.4817 18.5197L16.4588 18.6718L20.0917 21.4861L20.3434 21.5113C22.6549 19.3764 23.9875 16.2354 23.9875 12.5097Z" fill="#4285F4"/>
<path d="M12.2391 24.4758C15.5432 24.4758 18.3171 23.3879 20.3431 21.5115L16.4814 18.5199C15.4481 19.2406 14.0611 19.7437 12.2391 19.7437C9.00287 19.7437 6.2562 17.6089 5.27709 14.6582L5.13357 14.6704L1.35604 17.5939L1.30664 17.7313C3.31905 21.729 7.4527 24.4758 12.2391 24.4758Z" fill="#34A853"/>
<path d="M5.27678 14.6582C5.01843 13.8967 4.86891 13.0808 4.86891 12.2378C4.86891 11.3947 5.01843 10.5789 5.26318 9.81743L5.25634 9.65526L1.43145 6.68481L1.30631 6.74434C0.476896 8.40326 0.000976562 10.2662 0.000976562 12.2378C0.000976562 14.2094 0.476896 16.0723 1.30631 17.7312L5.27678 14.6582Z" fill="#FBBC05"/>
<path d="M12.2392 4.73189C14.5371 4.73189 16.0872 5.7245 16.9711 6.55401L20.4249 3.18181C18.3037 1.21018 15.5433 0 12.2392 0C7.45275 0 3.31907 2.74667 1.30664 6.7443L5.26353 9.81737C6.25625 6.86672 9.00295 4.73189 12.2392 4.73189Z" fill="#EB4335"/>
</g>
<defs>
<clipPath id="clip0_1999_9805">
<rect width="24" height="24.56" fill="white"/>
</clipPath>
</defs>
</svg>
