<svg width="16" height="16" viewBox="0 0 16 16" fill="none" xmlns="http://www.w3.org/2000/svg">
<path d="M14.7 8.00005C14.7 9.777 13.9942 11.4812 12.7377 12.7377C11.4812 13.9942 9.777 14.7 8.00005 14.7C6.2231 14.7 4.51893 13.9942 3.26243 12.7377C2.00594 11.4812 1.30005 9.777 1.30005 8.00005C1.30005 6.2231 2.00594 4.51893 3.26243 3.26243C4.51893 2.00594 6.2231 1.30005 8.00005 1.30005C9.777 1.30005 11.4812 2.00594 12.7377 3.26243C13.9942 4.51893 14.7 6.2231 14.7 8.00005ZM8.99 12.59C9.25255 12.3274 9.40005 11.9714 9.40005 11.6C9.40005 11.2287 9.25255 10.8726 8.99 10.6101C8.72745 10.3475 8.37135 10.2 8.00005 10.2C7.62874 10.2 7.27265 10.3475 7.0101 10.6101C6.74755 10.8726 6.60005 11.2287 6.60005 11.6C6.60005 11.9714 6.74755 12.3274 7.0101 12.59C7.27265 12.8525 7.62874 13 8.00005 13C8.37135 13 8.72745 12.8525 8.99 12.59ZM8.00005 3.00005C7.62874 3.00005 7.27265 3.14755 7.0101 3.4101C6.74755 3.67265 6.60005 4.02875 6.60005 4.40005V8.00005C6.60005 8.37135 6.74755 8.72745 7.0101 8.99C7.27265 9.25255 7.62874 9.40005 8.00005 9.40005C8.37135 9.40005 8.72745 9.25255 8.99 8.99C9.25255 8.72745 9.40005 8.37135 9.40005 8.00005V4.40005C9.40005 4.02875 9.25255 3.67265 8.99 3.4101C8.72745 3.14755 8.37135 3.00005 8.00005 3.00005Z" fill="#E74F4C" stroke="#E74F4C"/>
</svg>
