<svg width="111" height="8" viewBox="0 0 111 8" fill="none" xmlns="http://www.w3.org/2000/svg">
<path d="M110.307 6.53596C110.307 6.53596 109.66 6.82812 109.504 6.76895C109.162 6.72533 108.816 6.73546 108.478 6.79898C108.061 6.6412 107.734 6.87544 107.904 6.58204C108.075 6.28864 107.904 6.58204 107.904 6.58204C107.904 6.58204 107.539 6.44402 107.192 6.73043C106.845 7.01685 105.755 6.90306 106.096 6.31627C106.437 5.72947 106.234 5.95093 106.215 6.00312C106.195 6.0553 106.215 6.00312 106.215 6.00312C106.215 6.00312 106.353 5.63782 106.614 5.73643C106.875 5.83504 107.083 5.91393 108.56 5.63693C110.036 5.35992 110.461 5.34142 110.89 6.09996C111.319 6.85849 110.798 6.18461 110.307 6.53596ZM102.906 5.28949L102.488 5.13171C101.22 5.08175 99.9505 5.11993 98.6879 5.24603L97.3101 5.26213C96.5597 5.24681 95.8092 5.28195 95.0636 5.36737C94.6485 5.43502 94.2253 5.43616 93.8099 5.37071C93.5579 5.20588 93.2729 5.09818 92.9749 5.05515C92.3939 5.11906 91.8087 5.13723 91.2248 5.10946L89.9514 5.16495C89.73 5.125 89.5177 5.04479 89.3252 4.92829C87.8966 4.84063 86.4642 4.83699 85.0352 4.91735L83.357 4.93918L82.0836 4.99468C81.6821 5.07715 81.271 5.1025 80.8624 5.06994L78.6357 5.12298L77.1338 5.15183L73.9143 5.30682L71.3871 5.36565C69.8852 5.39446 67.3384 5.50549 64.4517 5.72665L61.1081 5.89444C54.7213 6.22419 53.0234 6.29821 52.8077 6.39561C52.6568 6.38178 52.5125 6.32725 52.3902 6.23783C51.832 6.17641 51.2684 6.18375 50.712 6.25966C50.2201 6.33455 49.7191 6.32663 49.2298 6.23627C49.2298 6.23627 49.7007 5.93712 50.3479 5.64494C52.1584 4.95742 53.5316 4.16429 53.7486 3.59023C53.9655 3.01618 53.2513 1.43419 50.9342 1.09526C47.1877 0.759648 43.4243 0.651925 39.6648 0.772655L37.7187 0.872155C33.0565 0.899422 19.2819 2.3138 11.9985 3.43788L10.0976 3.73338C7.93687 4.02181 5.7932 4.42612 3.67586 4.94455C3.4673 4.93042 3.26758 4.85494 3.1018 4.7276C2.75777 4.71731 2.41471 4.76955 2.08931 4.88174C1.82582 4.99632 1.54031 5.05129 1.25312 5.04282C1.25312 5.04282 0.939991 4.9245 1.09533 5.46032C1.10641 5.52798 1.09948 5.59737 1.07524 5.66149C1.05101 5.72562 1.01033 5.78221 0.957279 5.82563L1.2704 5.94396C1.2704 5.94396 1.84444 6.16094 3.20252 6.19705L14.3596 4.4495L21.1002 3.65702C31.147 2.49449 41.2673 2.09255 51.3747 2.45458C51.3747 2.45458 50.4851 3.0726 48.9031 3.78682C45.8632 5.20252 45.4248 5.57358 45.9187 6.47594C46.4126 7.37829 46.4915 7.16954 48.1105 7.30427C49.7296 7.439 59.656 6.89628 62.8163 6.89782L64.8343 6.76585L67.5574 6.66183C68.6546 6.59934 74.1727 6.35877 75.3023 6.36819L77.6729 6.25015C78.1782 6.19441 78.6862 6.16736 79.1945 6.16915L81.1928 6.08937L84.6211 6.01327L89.1859 5.77026L91.0601 5.70324L92.1572 5.64073L93.2868 5.65015C93.6319 5.74269 93.9932 5.75701 94.3445 5.69204L95.5263 5.72118L97.2567 5.71907L99.6794 5.62076C100.855 5.64051 102.03 5.58682 103.199 5.45998C103.944 5.38353 104.31 5.04493 104.299 4.44417C104.187 4.25946 104.006 4.12685 103.796 4.07549C103.586 4.02414 103.364 4.05825 103.18 4.17034C102.995 4.28244 102.862 4.4633 102.811 4.67318C102.76 4.88305 102.794 5.10477 102.906 5.28949Z" fill="#6246EA"/>
</svg>
