<svg width="39" height="46" viewBox="0 0 39 46" fill="none" xmlns="http://www.w3.org/2000/svg">
<path d="M2.21033 6.81585L2.21051 6.81579M2.21033 6.81585L2.21029 6.81586L2.21051 6.81579M2.21033 6.81585C2.21039 6.81583 2.21045 6.81581 2.21051 6.81579M2.21033 6.81585L2.21051 6.81579M19.8337 1.52884L37.3145 6.77316V26.0733C37.3145 28.1744 36.4667 30.4431 34.5945 32.8323C33.162 34.6603 31.1422 36.5423 28.5569 38.4137C24.4869 41.3599 20.4639 43.2463 19.8337 43.5348C19.2043 43.2467 15.1808 41.3602 11.1104 38.4137C8.52509 36.5423 6.50516 34.6603 5.07279 32.8323C3.20052 30.4429 2.3526 28.1742 2.3526 26.0733V6.77317L19.8337 1.52884ZM19.8907 1.51175L19.891 1.51166L19.8907 1.51175Z" stroke="#6246EA" stroke-width="3.04017"/>
<path d="M15.2524 25.5635C10.492 25.5635 7.1344 22.1829 7.1344 17.3534C7.1344 12.524 10.492 9.12042 15.2524 9.12042C19.093 9.12042 21.9906 11.2822 22.9105 14.7778H18.587C17.9201 13.3979 16.7013 12.708 15.2064 12.708C12.7917 12.708 11.1359 14.5018 11.1359 17.3534C11.1359 20.2051 12.7917 21.9989 15.2064 21.9989C16.6992 21.9989 17.9167 21.3109 18.5842 19.9349C19.4142 18.0925 21.4911 17.0938 24.0809 17.0938C27.5995 17.0938 29.9682 18.8416 30.1292 21.9232H25.8747C25.8057 20.8884 25.0698 20.2674 24.0119 20.2444C23.0691 20.2214 22.3561 20.7044 22.3561 21.7163C22.3561 22.8912 23.7557 23.3523 25.3825 23.8883C27.6404 24.6322 30.3362 25.5203 30.3362 28.6614C30.3362 31.3751 28.2204 33.6288 24.4489 33.6288C20.9763 33.6288 18.2626 31.904 18.1476 28.6384H22.3331C22.4481 29.8803 23.23 30.4782 24.3339 30.4782C25.4838 30.4782 26.2197 29.9033 26.2197 28.9604C26.2197 27.7073 24.8015 27.2622 23.1573 26.7463C21.7368 26.3005 20.1475 25.8018 19.1588 24.6832C18.0299 25.2558 16.709 25.5635 15.2524 25.5635Z" fill="#6246EA"/>
</svg>
