<svg width="177" height="49" viewBox="0 0 177 49" fill="none" xmlns="http://www.w3.org/2000/svg">
<path d="M51.584 34.8984C51.584 35.7464 51.2916 36.4529 50.7068 37.0182C50.1318 37.5738 49.2498 37.8515 48.0608 37.8515H46.1018V42.1057H44.7714V31.9161H48.0608C49.2108 31.9161 50.0831 32.1939 50.6776 32.7494C51.2819 33.3049 51.584 34.0213 51.584 34.8984ZM48.0608 36.7551C48.8015 36.7551 49.3473 36.5943 49.6981 36.2726C50.049 35.951 50.2244 35.493 50.2244 34.8984C50.2244 33.6412 49.5032 33.0126 48.0608 33.0126H46.1018V36.7551H48.0608ZM61.5266 42.1057L59.0998 37.9392H57.4917V42.1057H56.1613V31.9161H59.4506C60.2206 31.9161 60.8687 32.0477 61.395 32.3108C61.931 32.574 62.3306 32.9297 62.5938 33.378C62.8569 33.8264 62.9885 34.338 62.9885 34.9131C62.9885 35.6148 62.7838 36.2337 62.3745 36.7697C61.9749 37.3057 61.3706 37.6615 60.5617 37.8369L63.1201 42.1057H61.5266ZM57.4917 36.872H59.4506C60.1718 36.872 60.7128 36.6966 61.0734 36.3457C61.434 35.9851 61.6143 35.5076 61.6143 34.9131C61.6143 34.3088 61.434 33.841 61.0734 33.5096C60.7225 33.1782 60.1816 33.0126 59.4506 33.0126H57.4917V36.872ZM72.5991 42.2081C71.6538 42.2081 70.7912 41.9888 70.0115 41.5502C69.2318 41.1019 68.613 40.483 68.1549 39.6935C67.7066 38.8944 67.4824 37.9977 67.4824 37.0036C67.4824 36.0095 67.7066 35.1177 68.1549 34.3283C68.613 33.5291 69.2318 32.9102 70.0115 32.4716C70.7912 32.0233 71.6538 31.7992 72.5991 31.7992C73.5543 31.7992 74.4217 32.0233 75.2014 32.4716C75.9811 32.9102 76.5951 33.5242 77.0434 34.3137C77.4917 35.1031 77.7159 35.9998 77.7159 37.0036C77.7159 38.0075 77.4917 38.9041 77.0434 39.6935C76.5951 40.483 75.9811 41.1019 75.2014 41.5502C74.4217 41.9888 73.5543 42.2081 72.5991 42.2081ZM72.5991 41.0531C73.3106 41.0531 73.949 40.8875 74.5143 40.5561C75.0893 40.2247 75.5376 39.752 75.8592 39.138C76.1906 38.524 76.3563 37.8125 76.3563 37.0036C76.3563 36.1849 76.1906 35.4735 75.8592 34.8692C75.5376 34.2552 75.0942 33.7825 74.5289 33.4511C73.9636 33.1198 73.3204 32.9541 72.5991 32.9541C71.8779 32.9541 71.2347 33.1198 70.6694 33.4511C70.1041 33.7825 69.6558 34.2552 69.3244 34.8692C69.0028 35.4735 68.842 36.1849 68.842 37.0036C68.842 37.8125 69.0028 38.524 69.3244 39.138C69.6558 39.752 70.1041 40.2247 70.6694 40.5561C71.2444 40.8875 71.8877 41.0531 72.5991 41.0531ZM90.1149 34.8692C89.8323 34.2747 89.423 33.8166 88.8869 33.495C88.3509 33.1636 87.7271 32.9979 87.0157 32.9979C86.3042 32.9979 85.6609 33.1636 85.0859 33.495C84.5206 33.8166 84.0723 34.2844 83.7409 34.8984C83.4193 35.5027 83.2585 36.2044 83.2585 37.0036C83.2585 37.8028 83.4193 38.5045 83.7409 39.1088C84.0723 39.713 84.5206 40.1809 85.0859 40.5122C85.6609 40.8338 86.3042 40.9947 87.0157 40.9947C88.0098 40.9947 88.8284 40.6974 89.4717 40.1029C90.1149 39.5084 90.4902 38.7043 90.5974 37.6907H86.5332V36.6089H92.0154V37.6322C91.9375 38.4704 91.6743 39.2404 91.226 39.9421C90.7777 40.6341 90.188 41.1847 89.4571 41.594C88.7261 41.9936 87.9123 42.1934 87.0157 42.1934C86.0703 42.1934 85.2077 41.9741 84.428 41.5356C83.6484 41.0872 83.0295 40.4684 82.5714 39.6789C82.1231 38.8895 81.8989 37.9977 81.8989 37.0036C81.8989 36.0095 82.1231 35.1177 82.5714 34.3283C83.0295 33.5291 83.6484 32.9102 84.428 32.4716C85.2077 32.0233 86.0703 31.7992 87.0157 31.7992C88.0975 31.7992 89.0526 32.0672 89.881 32.6032C90.7192 33.1393 91.3283 33.8946 91.7084 34.8692H90.1149ZM102.064 42.1057L99.6367 37.9392H98.0286V42.1057H96.6983V31.9161H99.9876C100.758 31.9161 101.406 32.0477 101.932 32.3108C102.468 32.574 102.868 32.9297 103.131 33.378C103.394 33.8264 103.525 34.338 103.525 34.9131C103.525 35.6148 103.321 36.2337 102.911 36.7697C102.512 37.3057 101.908 37.6615 101.099 37.8369L103.657 42.1057H102.064ZM98.0286 36.872H99.9876C100.709 36.872 101.25 36.6966 101.61 36.3457C101.971 35.9851 102.151 35.5076 102.151 34.9131C102.151 34.3088 101.971 33.841 101.61 33.5096C101.259 33.1782 100.719 33.0126 99.9876 33.0126H98.0286V36.872ZM114.54 39.8397H110.095L109.277 42.1057H107.873L111.557 31.9746H113.092L116.762 42.1057H115.358L114.54 39.8397ZM114.159 38.7579L112.317 33.6119L110.475 38.7579H114.159ZM131.627 31.9892V42.1057H130.297V34.5622L126.934 42.1057H125.999L122.621 34.5476V42.1057H121.291V31.9892H122.724L126.466 40.3514L130.209 31.9892H131.627Z" fill="#5138EE"/>
<path d="M1.8715 15.6903C1.8715 14.2562 2.19173 12.9753 2.83219 11.8475C3.48657 10.7058 4.37069 9.82173 5.48453 9.19519C6.6123 8.55473 7.87234 8.2345 9.26465 8.2345C10.8937 8.2345 12.3208 8.65219 13.546 9.48758C14.7712 10.323 15.6275 11.4786 16.1148 12.9544H12.7524C12.4182 12.2583 11.9448 11.7362 11.3322 11.3881C10.7335 11.04 10.0374 10.866 9.24377 10.866C8.39446 10.866 7.63565 11.0678 6.96734 11.4716C6.31296 11.8615 5.7978 12.4184 5.42188 13.1424C5.05988 13.8664 4.87888 14.7157 4.87888 15.6903C4.87888 16.651 5.05988 17.5003 5.42188 18.2382C5.7978 18.9622 6.31296 19.5261 6.96734 19.9299C7.63565 20.3197 8.39446 20.5147 9.24377 20.5147C10.0374 20.5147 10.7335 20.3406 11.3322 19.9925C11.9448 19.6305 12.4182 19.1015 12.7524 18.4053H16.1148C15.6275 19.8951 14.7712 21.0577 13.546 21.893C12.3347 22.7145 10.9076 23.1252 9.26465 23.1252C7.87234 23.1252 6.6123 22.812 5.48453 22.1854C4.37069 21.545 3.48657 20.6608 2.83219 19.5331C2.19173 18.4053 1.8715 17.1244 1.8715 15.6903ZM25.7129 22.9999L22.4967 17.3193H21.1183V22.9999H18.1945V8.42246H23.6662C24.794 8.42246 25.7547 8.62434 26.5483 9.02811C27.3419 9.41796 27.9337 9.954 28.3235 10.6362C28.7273 11.3045 28.9292 12.0564 28.9292 12.8918C28.9292 13.8525 28.6507 14.7227 28.0938 15.5023C27.5368 16.2681 26.7084 16.7972 25.6085 17.0896L29.0962 22.9999H25.7129ZM21.1183 15.1264H23.5618C24.3554 15.1264 24.9472 14.9385 25.337 14.5625C25.7268 14.1727 25.9218 13.6367 25.9218 12.9544C25.9218 12.2861 25.7268 11.771 25.337 11.409C24.9472 11.033 24.3554 10.8451 23.5618 10.8451H21.1183V15.1264ZM34.0798 10.7824V14.4372H38.9877V16.7554H34.0798V20.6191H39.6142V22.9999H31.156V8.40157H39.6142V10.7824H34.0798ZM46.9495 8.42246C48.481 8.42246 49.8246 8.72181 50.9802 9.3205C52.1497 9.91919 53.0478 10.7755 53.6743 11.8893C54.3148 12.9892 54.635 14.2702 54.635 15.7321C54.635 17.194 54.3148 18.4749 53.6743 19.5748C53.0478 20.6608 52.1497 21.5032 50.9802 22.1019C49.8246 22.7006 48.481 22.9999 46.9495 22.9999H41.8536V8.42246H46.9495ZM46.8451 20.5147C48.3766 20.5147 49.5601 20.097 50.3954 19.2616C51.2308 18.4262 51.6485 17.2497 51.6485 15.7321C51.6485 14.2145 51.2308 13.031 50.3954 12.1817C49.5601 11.3185 48.3766 10.8868 46.8451 10.8868H44.7775V20.5147H46.8451ZM59.3298 8.42246V22.9999H56.406V8.42246H59.3298ZM71.7211 8.42246V10.7824H67.8365V22.9999H64.9127V10.7824H61.0282V8.42246H71.7211ZM83.0286 23.1461C82.0123 23.1461 81.0933 22.9721 80.2719 22.624C79.4643 22.2759 78.8239 21.7747 78.3505 21.1203C77.8771 20.4659 77.6334 19.6932 77.6195 18.8021H80.7522C80.794 19.4008 81.0028 19.8742 81.3788 20.2223C81.7686 20.5703 82.2977 20.7444 82.966 20.7444C83.6482 20.7444 84.1843 20.5843 84.5741 20.264C84.9639 19.9299 85.1589 19.4983 85.1589 18.9692C85.1589 18.5376 85.0266 18.1825 84.7621 17.9041C84.4975 17.6256 84.1634 17.4098 83.7596 17.2567C83.3698 17.0896 82.8268 16.9086 82.1306 16.7137C81.1838 16.4352 80.4111 16.1637 79.8124 15.8992C79.2276 15.6207 78.7194 15.21 78.2878 14.667C77.8701 14.11 77.6613 13.3721 77.6613 12.4532C77.6613 11.59 77.8771 10.8381 78.3087 10.1977C78.7403 9.55719 79.346 9.06988 80.1257 8.73573C80.9054 8.38765 81.7964 8.21361 82.7989 8.21361C84.3026 8.21361 85.5209 8.58257 86.4537 9.3205C87.4005 10.0445 87.9226 11.0609 88.0201 12.3697H84.8038C84.776 11.8684 84.5602 11.4577 84.1564 11.1375C83.7666 10.8033 83.2444 10.6362 82.5901 10.6362C82.0192 10.6362 81.5598 10.7824 81.2117 11.0748C80.8775 11.3672 80.7104 11.7918 80.7104 12.3488C80.7104 12.7386 80.8358 13.0658 81.0864 13.3303C81.3509 13.581 81.6711 13.7898 82.0471 13.9569C82.4369 14.11 82.9799 14.291 83.6761 14.4999C84.6228 14.7783 85.3956 15.0568 85.9943 15.3353C86.5929 15.6137 87.1081 16.0314 87.5397 16.5883C87.9713 17.1453 88.1871 17.8762 88.1871 18.7812C88.1871 19.5609 87.9853 20.2849 87.5815 20.9532C87.1777 21.6215 86.586 22.1576 85.8063 22.5613C85.0266 22.9512 84.1007 23.1461 83.0286 23.1461ZM97.0709 23.1461C95.7065 23.1461 94.4534 22.8259 93.3117 22.1854C92.17 21.545 91.265 20.6608 90.5967 19.5331C89.9284 18.3914 89.5942 17.1035 89.5942 15.6694C89.5942 14.2493 89.9284 12.9753 90.5967 11.8475C91.265 10.7058 92.17 9.81477 93.3117 9.1743C94.4534 8.53384 95.7065 8.21361 97.0709 8.21361C98.4493 8.21361 99.7024 8.53384 100.83 9.1743C101.972 9.81477 102.87 10.7058 103.524 11.8475C104.193 12.9753 104.527 14.2493 104.527 15.6694C104.527 17.1035 104.193 18.3914 103.524 19.5331C102.87 20.6608 101.972 21.545 100.83 22.1854C99.6885 22.8259 98.4354 23.1461 97.0709 23.1461ZM97.0709 20.5355C97.9481 20.5355 98.7208 20.3406 99.3891 19.9508C100.057 19.547 100.58 18.9762 100.955 18.2382C101.331 17.5003 101.519 16.644 101.519 15.6694C101.519 14.6948 101.331 13.8455 100.955 13.1215C100.58 12.3836 100.057 11.8197 99.3891 11.4298C98.7208 11.04 97.9481 10.8451 97.0709 10.8451C96.1938 10.8451 95.4141 11.04 94.7319 11.4298C94.0635 11.8197 93.5414 12.3836 93.1655 13.1215C92.7896 13.8455 92.6016 14.6948 92.6016 15.6694C92.6016 16.644 92.7896 17.5003 93.1655 18.2382C93.5414 18.9762 94.0635 19.547 94.7319 19.9508C95.4141 20.3406 96.1938 20.5355 97.0709 20.5355ZM109.208 20.6817H114.012V22.9999H106.284V8.42246H109.208V20.6817ZM118.334 8.42246V17.4446C118.334 18.4332 118.592 19.192 119.107 19.721C119.622 20.2362 120.346 20.4938 121.279 20.4938C122.226 20.4938 122.957 20.2362 123.472 19.721C123.987 19.192 124.245 18.4332 124.245 17.4446V8.42246H127.189V17.4237C127.189 18.6629 126.918 19.7141 126.375 20.5773C125.846 21.4266 125.129 22.0671 124.224 22.4987C123.333 22.9303 122.337 23.1461 121.237 23.1461C120.151 23.1461 119.163 22.9303 118.272 22.4987C117.395 22.0671 116.698 21.4266 116.183 20.5773C115.668 19.7141 115.411 18.6629 115.411 17.4237V8.42246H118.334ZM139.517 8.42246V10.7824H135.632V22.9999H132.709V10.7824H128.824V8.42246H139.517ZM144.156 8.42246V22.9999H141.233V8.42246H144.156ZM153.394 23.1461C152.03 23.1461 150.777 22.8259 149.635 22.1854C148.493 21.545 147.588 20.6608 146.92 19.5331C146.252 18.3914 145.917 17.1035 145.917 15.6694C145.917 14.2493 146.252 12.9753 146.92 11.8475C147.588 10.7058 148.493 9.81477 149.635 9.1743C150.777 8.53384 152.03 8.21361 153.394 8.21361C154.773 8.21361 156.026 8.53384 157.153 9.1743C158.295 9.81477 159.193 10.7058 159.847 11.8475C160.516 12.9753 160.85 14.2493 160.85 15.6694C160.85 17.1035 160.516 18.3914 159.847 19.5331C159.193 20.6608 158.295 21.545 157.153 22.1854C156.012 22.8259 154.759 23.1461 153.394 23.1461ZM153.394 20.5355C154.271 20.5355 155.044 20.3406 155.712 19.9508C156.381 19.547 156.903 18.9762 157.279 18.2382C157.655 17.5003 157.843 16.644 157.843 15.6694C157.843 14.6948 157.655 13.8455 157.279 13.1215C156.903 12.3836 156.381 11.8197 155.712 11.4298C155.044 11.04 154.271 10.8451 153.394 10.8451C152.517 10.8451 151.737 11.04 151.055 11.4298C150.387 11.8197 149.865 12.3836 149.489 13.1215C149.113 13.8455 148.925 14.6948 148.925 15.6694C148.925 16.644 149.113 17.5003 149.489 18.2382C149.865 18.9762 150.387 19.547 151.055 19.9508C151.737 20.3406 152.517 20.5355 153.394 20.5355ZM175.076 22.9999H172.152L165.531 12.9962V22.9999H162.608V8.40157H165.531L172.152 18.4262V8.40157H175.076V22.9999Z" fill="#6246EA"/>
<line x1="0.832275" y1="37.0701" x2="34.2477" y2="37.0701" stroke="#5138EE" stroke-width="1.04423"/>
<line x1="140.759" y1="37.0701" x2="174.175" y2="37.0701" stroke="#5138EE" stroke-width="1.04423"/>
</svg>
