<svg width="42" height="50" viewBox="0 0 42 50" fill="none" xmlns="http://www.w3.org/2000/svg">
<path d="M40.554 7.27695L40.5542 7.277C40.5737 7.28284 40.5873 7.30077 40.5873 7.32167V28.8163C40.5873 31.2138 39.6193 33.7776 37.5242 36.4512C35.9217 38.4962 33.6693 40.5929 30.7978 42.6715C25.9625 46.1716 21.1895 48.3235 21.0194 48.3996L21.0185 48.4C21.0132 48.4024 21.0071 48.4038 21.0002 48.4038C20.9937 48.4038 20.9874 48.4024 20.9814 48.3998L20.9807 48.3995C20.8109 48.3235 16.0377 46.1716 11.2024 42.6715C8.33091 40.5929 6.07841 38.4962 4.47599 36.4512C2.38084 33.7774 1.41274 31.2136 1.41274 28.8163V7.32167C1.41274 7.30098 1.42633 7.28284 1.44593 7.27696L1.44596 7.27695L20.9867 1.41475L20.9867 1.41474C20.9957 1.41206 21.0049 1.4121 21.0135 1.4147L21.0137 1.41475L40.554 7.27695Z" fill="#6246EA" stroke="#6246EA" stroke-width="2.82548"/>
<path d="M16.301 27.4604C11.3783 27.4604 7.90625 24.0071 7.90625 19.0738C7.90625 14.1404 11.3783 10.6636 16.301 10.6636C20.2724 10.6636 23.2689 12.8718 24.2201 16.4426H19.7493C19.0596 15.0331 17.7992 14.3283 16.2534 14.3283C13.7564 14.3283 12.0442 16.1607 12.0442 19.0738C12.0442 21.9868 13.7564 23.8192 16.2534 23.8192C17.797 23.8192 19.0561 23.1164 19.7463 21.7108C20.6046 19.8288 22.7523 18.8085 25.4304 18.8085C29.0689 18.8085 31.5184 20.5939 31.6848 23.7419H27.2853C27.214 22.6847 26.453 22.0504 25.3591 22.0269C24.384 22.0035 23.6468 22.4968 23.6468 23.5304C23.6468 24.7307 25.094 25.2017 26.7763 25.7492C29.1112 26.5091 31.8989 27.4163 31.8989 30.6251C31.8989 33.3971 29.711 35.6994 25.8109 35.6994C22.22 35.6994 19.4138 33.9374 19.2949 30.6016H23.623C23.7419 31.8701 24.5505 32.4809 25.692 32.4809C26.8811 32.4809 27.642 31.8936 27.642 30.9305C27.642 29.6504 26.1755 29.1957 24.4753 28.6687C23.0063 28.2133 21.3629 27.7039 20.3405 26.5613C19.1731 27.1462 17.8072 27.4604 16.301 27.4604Z" fill="#FAFAFE"/>
</svg>
