<svg width="114" height="21" viewBox="0 0 114 21" fill="none" xmlns="http://www.w3.org/2000/svg">
<g style="mix-blend-mode:luminosity" clip-path="url(#clip0_841_6383)">
<path d="M24.7239 12.6197C24.8068 13.5382 25.5003 14.3518 26.802 14.3518C27.8071 14.3518 28.3373 13.8102 28.3373 13.1837C28.3373 12.6421 27.9579 12.2228 27.1387 12.0581L25.631 11.7212C23.8243 11.3268 22.8669 10.1562 22.8669 8.75853C22.8669 6.98396 24.5052 5.48393 26.6361 5.48393C29.4957 5.48393 30.418 7.3209 30.5863 8.32175L28.5283 8.90579C28.4454 8.32175 28.0031 7.3833 26.6361 7.3833C25.7767 7.3833 25.1661 7.92491 25.1661 8.55138C25.1661 9.09298 25.5657 9.48983 26.1964 9.61462L27.7518 9.92661C29.6842 10.3459 30.6919 11.514 30.6919 13.014C30.6919 14.5615 29.4354 16.2587 26.8271 16.2587C23.8645 16.2587 22.7312 14.3393 22.603 13.1912L24.7239 12.6197ZM41.7433 13.054C41.198 14.8285 39.5798 16.2687 37.1222 16.2687C34.3581 16.2687 31.893 14.272 31.893 10.8226C31.893 7.61042 34.2877 5.48143 36.8709 5.48143C40.022 5.48143 41.869 7.54553 41.869 10.7602C41.877 11.0188 41.856 11.2775 41.8061 11.5315H34.3279C34.347 12.2502 34.6516 12.9323 35.175 13.4288C35.6985 13.9254 36.3985 14.1962 37.1222 14.1821C38.5922 14.1821 39.3486 13.4109 39.6853 12.4075L41.7433 13.054ZM39.4114 9.75939C39.3712 8.56885 38.5721 7.51308 36.8986 7.51308C36.2721 7.49973 35.6643 7.72503 35.1998 8.14274C34.7354 8.56046 34.4495 9.13891 34.4008 9.75939H39.4114ZM45.588 10.8726C45.588 12.9192 46.9122 14.0673 48.4451 14.0673C49.0237 14.0838 49.5912 13.9068 50.0565 13.5646C50.5217 13.2224 50.8577 12.735 51.0107 12.1804L53.1541 12.9516C52.6692 14.5365 51.1439 16.2687 48.4476 16.2687C45.4322 16.2687 43.153 13.9525 43.153 10.8626C43.153 7.77266 45.4422 5.48143 48.3848 5.48143C51.1489 5.48143 52.6566 7.19111 53.0687 8.82093L50.88 9.62461C50.7627 9.06687 50.4485 8.56917 49.9942 8.22133C49.5398 7.87349 48.9752 7.69842 48.4023 7.72773C46.9122 7.71525 45.588 8.82093 45.588 10.8726ZM58.5869 16.2487C56.1469 16.2487 54.7196 14.4542 54.7196 12.2004V5.79342H57.1546V11.7611C57.1546 13.009 57.7451 14.0798 59.2151 14.0798C60.6248 14.0798 61.356 13.1413 61.356 11.8035V5.79342H63.7935V14.0997C63.7931 14.7202 63.8284 15.3402 63.899 15.9567H61.5646C61.5084 15.5832 61.4806 15.2061 61.4817 14.8285C60.9816 15.747 59.783 16.2487 58.5869 16.2487ZM72.3698 8.19446C72.1055 8.15274 71.8384 8.13104 71.5707 8.12957C69.6786 8.12957 68.8192 9.21528 68.8192 11.1246V15.9667H66.3792V5.79342H68.7563V7.42074C69.2388 6.31506 70.3721 5.67361 71.7165 5.67361C71.9357 5.67453 72.1544 5.69542 72.3698 5.73601V8.19446ZM74.9982 0.639404C75.2078 0.639404 75.4153 0.680399 75.6089 0.760047C75.8025 0.839695 75.9784 0.956437 76.1265 1.10361C76.2747 1.25078 76.3922 1.4255 76.4724 1.61778C76.5526 1.81007 76.5939 2.01616 76.5939 2.22429C76.5919 2.53492 76.4975 2.83803 76.3225 3.09549C76.1475 3.35294 75.8998 3.55325 75.6104 3.67121C75.3211 3.78917 75.0032 3.81952 74.6965 3.75843C74.3899 3.69735 74.1083 3.54756 73.8871 3.32791C73.666 3.10825 73.5152 2.82855 73.4537 2.52398C73.3922 2.21941 73.4227 1.90358 73.5415 1.61622C73.6603 1.32885 73.8619 1.08279 74.1211 0.90898C74.3803 0.735171 74.6855 0.64138 74.9982 0.639404V0.639404ZM73.7996 15.9567V5.79342H76.217V15.9567H73.7996ZM81.9186 5.79342H84.042V7.94238H81.9186V12.6571C81.9186 13.5556 82.3181 13.9325 83.2228 13.9325C83.5042 13.9258 83.7847 13.8983 84.0621 13.8501V15.8469C83.5848 16.0211 83.0774 16.0991 82.5694 16.0765C80.6798 16.0765 79.5038 14.9483 79.5038 13.049V7.94238H77.6116V5.79342H78.1393C79.2299 5.79342 79.7148 5.10455 79.7148 4.20853V2.68603H81.9186V5.79342ZM86.9443 20.0649L89.4044 14.7462L85.0295 5.79342H87.7936L90.7135 12.2203L93.4777 5.79342H96.0634L89.5476 20.0649H86.9443ZM95.3045 14.3219C95.417 14.3215 95.5285 14.3433 95.6324 14.386C95.7364 14.4287 95.8308 14.4914 95.9103 14.5706C95.9897 14.6497 96.0526 14.7437 96.0952 14.8471C96.1379 14.9505 96.1595 15.0612 96.1589 15.173C96.1596 15.2841 96.1378 15.3943 96.095 15.497C96.0522 15.5997 95.9891 15.6929 95.9095 15.771C95.8299 15.8492 95.7354 15.9107 95.6315 15.952C95.5276 15.9933 95.4164 16.0136 95.3045 16.0116C95.1929 16.0136 95.0821 15.9933 94.9786 15.9519C94.8751 15.9105 94.7811 15.8489 94.7021 15.7706C94.623 15.6924 94.5607 15.5991 94.5187 15.4965C94.4767 15.3938 94.456 15.2838 94.4577 15.173C94.4557 15.0615 94.4761 14.9507 94.5178 14.8472C94.5595 14.7437 94.6217 14.6496 94.7006 14.5703C94.7795 14.4909 94.8736 14.4281 94.9773 14.3855C95.081 14.3428 95.1923 14.3212 95.3045 14.3219ZM103.132 13.019C103.132 14.8061 101.876 16.1314 100.117 16.1314C98.3576 16.1314 97.1012 14.8061 97.1012 13.019C97.1012 11.232 98.3576 9.91663 100.117 9.91663C101.876 9.91663 103.132 11.2444 103.132 13.019ZM101.956 13.019C101.956 11.6712 101.099 10.9399 100.122 10.9399C99.1441 10.9399 98.2822 11.6712 98.2822 13.019C98.2822 14.3668 99.1416 15.1156 100.122 15.1156C101.102 15.1156 101.956 14.3818 101.956 13.019ZM107.665 11.2544C107.499 11.2318 107.331 11.2202 107.163 11.2195C106.195 11.2195 105.547 11.7187 105.547 13.019V15.9517H104.393V10.0988H105.522V11.1221C105.666 10.7804 105.912 10.4902 106.226 10.2901C106.54 10.0899 106.908 9.98931 107.281 10.0015C107.408 10.0024 107.535 10.015 107.66 10.0389L107.665 11.2544ZM109.412 16.0116C109.442 16.4094 109.626 16.7803 109.924 17.0474C110.223 17.3145 110.613 17.4575 111.015 17.4467C112.254 17.4467 112.816 16.8153 112.816 15.5474V14.7112C112.535 15.2478 111.899 15.6697 111.015 15.6697C109.447 15.6697 108.308 14.4916 108.308 12.8368C108.308 11.2544 109.402 9.9915 111.015 9.9915C111.922 9.9915 112.522 10.3309 112.829 10.915V10.0988H113.967V15.5124C113.967 17.0099 113.234 18.4476 111.015 18.4476C109.547 18.4476 108.447 17.5216 108.298 16.2687L109.412 16.0116ZM112.867 12.8368C112.867 11.7062 112.181 10.9649 111.188 10.9649C110.196 10.9649 109.484 11.7137 109.484 12.8368C109.484 13.96 110.148 14.7112 111.188 14.7112C112.181 14.7112 112.867 13.9675 112.867 12.8368Z" fill="#866464"/>
<path d="M6.72693 10.8726V18.5849C6.72693 18.8798 6.78543 19.1719 6.89908 19.4445C7.01273 19.717 7.17932 19.9646 7.38932 20.1732C7.59933 20.3818 7.84864 20.5473 8.12302 20.6602C8.39741 20.7731 8.69149 20.8312 8.98848 20.8312C9.28548 20.8312 9.57956 20.7731 9.85394 20.6602C10.1283 20.5473 10.3776 20.3818 10.5876 20.1732C10.7976 19.9646 10.9642 19.717 11.0779 19.4445C11.1915 19.1719 11.25 18.8798 11.25 18.5849V10.8751L6.72693 10.8726Z" fill="#9191FF"/>
<path d="M11.2525 10.8726V3.1603C11.2525 2.56455 11.0142 1.99319 10.5901 1.57193C10.166 1.15066 9.59073 0.914001 8.99092 0.914001C8.39112 0.914001 7.81589 1.15066 7.39176 1.57193C6.96764 1.99319 6.72937 2.56455 6.72937 3.1603V10.8726H11.2525Z" fill="#00DCFF"/>
<path d="M15.7153 16.9774C15.1155 16.9774 14.5403 16.7408 14.1161 16.3195C13.692 15.8982 13.4537 15.3269 13.4537 14.7311V7.01632C13.4537 6.42056 13.692 5.84921 14.1161 5.42795C14.5403 5.00668 15.1155 4.77002 15.7153 4.77002C16.3151 4.77002 16.8903 5.00668 17.3145 5.42795C17.7386 5.84921 17.9768 6.42056 17.9768 7.01632V14.7311C17.9768 15.3269 17.7386 15.8982 17.3145 16.3195C16.8903 16.7408 16.3151 16.9774 15.7153 16.9774Z" fill="#00F5B0"/>
<path d="M2.26156 16.9774C1.66175 16.9774 1.08652 16.7408 0.662394 16.3195C0.23827 15.8982 0 15.3269 0 14.7311L0 7.01632C0 6.42056 0.23827 5.84921 0.662394 5.42795C1.08652 5.00668 1.66175 4.77002 2.26156 4.77002C2.86136 4.77002 3.43659 5.00668 3.86072 5.42795C4.28484 5.84921 4.52311 6.42056 4.52311 7.01632V14.7311C4.52311 15.3269 4.28484 15.8982 3.86072 16.3195C3.43659 16.7408 2.86136 16.9774 2.26156 16.9774Z" fill="#009BFF"/>
<path d="M11.2525 10.8725C11.2525 11.3167 11.1198 11.751 10.8713 12.1204C10.6228 12.4898 10.2696 12.7778 9.85639 12.9478C9.44314 13.1178 8.98842 13.1623 8.54972 13.0756C8.11102 12.9889 7.70805 12.775 7.39176 12.4608C7.07548 12.1467 6.86009 11.7464 6.77283 11.3107C6.68556 10.875 6.73035 10.4233 6.90152 10.0128C7.07269 9.60238 7.36256 9.25156 7.73447 9.00473C8.10638 8.7579 8.54363 8.62616 8.99093 8.62616C9.59073 8.62616 10.166 8.86282 10.5901 9.28409C11.0142 9.70535 11.2525 10.2767 11.2525 10.8725Z" fill="#1B3AEF"/>
</g>
<defs>
<clipPath id="clip0_841_6383">
<rect width="113.967" height="20.1967" fill="white" transform="translate(0 0.639404)"/>
</clipPath>
</defs>
</svg>
