<svg width="14" height="16" viewBox="0 0 14 16" fill="none" xmlns="http://www.w3.org/2000/svg">
<path d="M2 7.5H2.5V7V5C2.5 3.80653 2.97411 2.66193 3.81802 1.81802C4.66193 0.974106 5.80653 0.5 7 0.5C8.19347 0.5 9.33807 0.974106 10.182 1.81802C11.0259 2.66193 11.5 3.80653 11.5 5V7V7.5H12C12.3978 7.5 12.7794 7.65804 13.0607 7.93934C13.342 8.22064 13.5 8.60218 13.5 9V14C13.5 14.3978 13.342 14.7794 13.0607 15.0607C12.7794 15.342 12.3978 15.5 12 15.5H2C1.60218 15.5 1.22064 15.342 0.93934 15.0607C0.658035 14.7794 0.5 14.3978 0.5 14V9C0.5 8.60218 0.658035 8.22064 0.93934 7.93934C1.22064 7.65804 1.60218 7.5 2 7.5ZM10 7.5H10.5V7V5C10.5 4.07174 10.1313 3.1815 9.47487 2.52513C8.8185 1.86875 7.92826 1.5 7 1.5C6.07174 1.5 5.1815 1.86875 4.52513 2.52513C3.86875 3.1815 3.5 4.07174 3.5 5V7V7.5H4H10Z" fill="#6B7280" stroke="#6B7280"/>
</svg>
