<svg width="97" height="94" viewBox="0 0 97 94" fill="none" xmlns="http://www.w3.org/2000/svg">
<path d="M94.3992 57.2462C92.6026 55.4591 88.1111 54.5655 81.823 54.1187C77.3315 54.1187 72.3909 54.5655 66.5519 55.0123C63.857 53.672 61.6113 51.8848 59.3655 50.0977C53.9757 45.1831 49.4842 38.0346 46.7893 30.4393C46.7893 29.5457 47.2384 29.0989 47.2384 28.6522C47.2384 28.6522 50.3825 11.6744 49.4842 5.86628C49.4842 4.97271 49.4842 4.97271 49.035 4.07915L48.5859 3.18559C48.1368 1.84524 46.3402 -0.388671 44.0944 0.0581106H42.7469C40.052 0.0581106 37.8063 1.39846 36.908 3.63237C35.1114 10.3341 36.908 20.6101 40.5012 33.5668L39.1537 35.8007C36.908 41.6088 33.7639 47.8638 31.069 53.2252L30.6199 54.1187C27.925 59.4801 25.2301 64.3947 22.9843 68.4158L20.7386 69.7561C20.7386 69.7561 16.2471 71.99 15.3488 72.4368C6.81493 77.3514 1.42513 83.1596 0.52683 87.6274C0.0776798 88.9678 0.526829 90.7549 1.87428 91.6484L4.12003 92.9888C5.01833 93.4356 6.36578 93.8823 7.26408 93.8823C13.103 93.8823 20.2894 86.7338 29.7216 70.2029C40.5012 66.6286 53.0774 63.5012 63.857 62.1608C72.3909 66.6286 82.2722 70.2029 89.0094 70.2029C90.3569 70.2029 91.2552 70.2029 92.1535 69.7561C93.5009 69.3093 94.3992 68.8625 95.2975 67.969C96.645 66.1819 96.645 63.5012 96.645 60.8205C95.7467 59.0333 95.2975 58.1398 94.3992 57.2462ZM5.91663 88.521C6.81493 85.3935 11.3064 79.5853 17.5945 74.6707C18.0437 74.2239 18.942 73.3304 19.8403 72.4368C13.103 83.1596 9.06068 87.1806 5.91663 88.521ZM43.6452 2.7388C45.4418 2.7388 46.7893 7.65341 46.7893 12.1212C46.7893 16.5891 45.891 19.7165 44.5435 21.9504C43.6452 18.3762 42.7469 13.0148 42.7469 9.44053C42.7469 9.88731 42.7469 2.7388 43.6452 2.7388ZM32.4165 63.9479C33.7639 61.714 35.1114 59.0333 36.4588 56.3527C40.052 50.0977 41.8486 44.7363 43.6452 40.7153C46.7893 46.5234 50.8317 51.4381 55.7723 55.4591C56.2215 55.9059 57.1198 56.3527 57.5689 56.7994C47.6876 59.0333 39.6029 61.2673 32.4165 63.9479ZM92.6026 63.5012C92.1535 63.9479 90.3569 63.9479 89.4586 63.9479C85.8654 63.9479 81.823 62.1608 75.5349 59.9269C77.7807 59.9269 80.0264 59.4801 81.823 59.4801C85.4162 59.4801 86.3145 59.4801 89.9077 60.3737C93.0518 61.2673 93.0518 63.0544 92.6026 63.5012Z" fill="white"/>
</svg>
