<svg width="86" height="87" viewBox="0 0 86 87" fill="none" xmlns="http://www.w3.org/2000/svg">
<rect x="29.0908" y="24.6519" width="34.3834" height="37.5671" fill="white"/>
<path fill-rule="evenodd" clip-rule="evenodd" d="M43.0993 86.5418C54.4474 86.5418 65.3308 82.0338 73.3551 74.0094C81.3795 65.9851 85.8875 55.1017 85.8875 43.7536C85.8875 32.4054 81.3795 21.5221 73.3551 13.4977C65.3308 5.47337 54.4474 0.965332 43.0993 0.965332C31.7511 0.965332 20.8678 5.47337 12.8434 13.4977C4.81907 21.5221 0.311035 32.4054 0.311035 43.7536C0.311035 55.1017 4.81907 65.9851 12.8434 74.0094C20.8678 82.0338 31.7511 86.5418 43.0993 86.5418ZM40.7192 28.6065C39.9137 28.0691 38.9774 27.7605 38.0102 27.7135C37.0431 27.6665 36.0813 27.883 35.2275 28.3398C34.3737 28.7966 33.66 29.4766 33.1624 30.3073C32.6648 31.138 32.4021 32.0882 32.4022 33.0565V54.4506C32.4021 55.4189 32.6648 56.3691 33.1624 57.1998C33.66 58.0305 34.3737 58.7105 35.2275 59.1674C36.0813 59.6242 37.0431 59.8406 38.0102 59.7937C38.9774 59.7467 39.9137 59.438 40.7192 58.9006L56.7648 48.2035C57.4973 47.7151 58.0979 47.0534 58.5133 46.2771C58.9287 45.5008 59.1461 44.634 59.1461 43.7536C59.1461 42.8731 58.9287 42.0063 58.5133 41.23C58.0979 40.4538 57.4973 39.792 56.7648 39.3036L40.7192 28.6065Z" fill="#6246EA"/>
</svg>
