<svg width="36" height="32" viewBox="0 0 36 32" fill="none" xmlns="http://www.w3.org/2000/svg">
<path d="M23.625 16H29.25V20.4285C29.25 22.8712 27.2321 24.8571 24.75 24.8571H24.1875C23.2524 24.8571 22.5 25.5975 22.5 26.5178V29.8393C22.5 30.7595 23.2523 31.5 24.1875 31.5H24.75C30.9656 31.5 36 26.5455 36 20.4286V3.82142C36 1.98771 34.4883 0.5 32.625 0.5H23.625C21.7617 0.5 20.25 1.98771 20.25 3.82142V12.6785C20.25 14.5123 21.7617 16 23.625 16ZM3.375 16H9V20.4285C9 22.8712 6.98206 24.8571 4.5 24.8571H3.93754C3.0024 24.8571 2.25 25.5975 2.25 26.5178V29.8393C2.25 30.7595 3.00233 31.5 3.93754 31.5H4.5C10.7156 31.5 15.75 26.5455 15.75 20.4286V3.82142C15.75 1.98771 14.2383 0.5 12.375 0.5H3.375C1.51171 0.5 0 1.98771 0 3.82142V12.6785C0 14.5123 1.51171 16 3.375 16Z" fill="#BCBCCD"/>
</svg>
