<svg width="24" height="24" viewBox="0 0 24 24" fill="none" xmlns="http://www.w3.org/2000/svg">
<rect x="0.5" y="0.5" width="23" height="23" rx="11.5" fill="#F2FBF8"/>
<path fillRule="evenodd" clipRule="evenodd" d="M17.3656 8.23441C17.5156 8.38443 17.5998 8.58788 17.5998 8.80001C17.5998 9.01214 17.5156 9.21559 17.3656 9.36561L10.9656 15.7656C10.8156 15.9156 10.6121 15.9998 10.4 15.9998C10.1879 15.9998 9.98442 15.9156 9.8344 15.7656L6.6344 12.5656C6.48867 12.4147 6.40804 12.2126 6.40986 12.0029C6.41168 11.7931 6.49582 11.5925 6.64415 11.4442C6.79247 11.2958 6.99312 11.2117 7.20288 11.2099C7.41264 11.2081 7.61472 11.2887 7.7656 11.4344L10.4 14.0688L16.2344 8.23441C16.3844 8.08444 16.5879 8.00018 16.8 8.00018C17.0121 8.00018 17.2156 8.08444 17.3656 8.23441Z" fill="#1E6759"/>
<rect x="0.5" y="0.5" width="23" height="23" rx="11.5" stroke="#45BC9E"/>
</svg>
