<svg width="24" height="24" viewBox="0 0 24 24" fill="none" xmlns="http://www.w3.org/2000/svg">
<rect x="0.5" y="0.5" width="23" height="23" rx="11.5" fill="#FFF3C6"/>
<path d="M12 13.6C12.4243 13.6 12.8313 13.4315 13.1314 13.1314C13.4314 12.8313 13.6 12.4244 13.6 12C13.6 11.5757 13.4314 11.1687 13.1314 10.8687C12.8313 10.5686 12.4243 10.4 12 10.4C11.5757 10.4 11.1687 10.5686 10.8686 10.8687C10.5686 11.1687 10.4 11.5757 10.4 12C10.4 12.4244 10.5686 12.8313 10.8686 13.1314C11.1687 13.4315 11.5757 13.6 12 13.6Z" fill="#943E0C"/>
<path fill-rule="evenodd" clip-rule="evenodd" d="M4.3664 12C5.3856 8.75442 8.4176 6.40002 12 6.40002C15.5824 6.40002 18.6144 8.75442 19.6336 12C18.6144 15.2456 15.5824 17.6 12 17.6C8.4176 17.6 5.3856 15.2456 4.3664 12ZM15.2 12C15.2 12.8487 14.8629 13.6627 14.2627 14.2628C13.6626 14.8629 12.8487 15.2 12 15.2C11.1513 15.2 10.3374 14.8629 9.73726 14.2628C9.13714 13.6627 8.8 12.8487 8.8 12C8.8 11.1513 9.13714 10.3374 9.73726 9.73728C10.3374 9.13717 11.1513 8.80002 12 8.80002C12.8487 8.80002 13.6626 9.13717 14.2627 9.73728C14.8629 10.3374 15.2 11.1513 15.2 12Z" fill="#943E0C"/>
<rect x="0.5" y="0.5" width="23" height="23" rx="11.5" stroke="#FFBF20"/>
</svg>
