<svg width="24" height="24" viewBox="0 0 24 24" fill="none" xmlns="http://www.w3.org/2000/svg">
<rect x="0.5" y="0.5" width="23" height="23" rx="11.5" fill="#F7F9F9"/>
<path fillRule="evenodd" clipRule="evenodd" d="M7.4344 7.43439C7.58442 7.28441 7.78787 7.20016 8 7.20016C8.21213 7.20016 8.41558 7.28441 8.5656 7.43439L12 10.8688L15.4344 7.43439C15.5082 7.35798 15.5965 7.29703 15.6941 7.2551C15.7917 7.21318 15.8967 7.19111 16.0029 7.19019C16.1091 7.18926 16.2144 7.2095 16.3128 7.24973C16.4111 7.28995 16.5004 7.34936 16.5755 7.42447C16.6506 7.49958 16.71 7.58891 16.7503 7.68722C16.7905 7.78554 16.8107 7.89088 16.8098 7.99711C16.8089 8.10333 16.7868 8.20831 16.7449 8.30591C16.703 8.40351 16.642 8.49179 16.5656 8.56559L13.1312 12L16.5656 15.4344C16.7113 15.5853 16.792 15.7873 16.7901 15.9971C16.7883 16.2069 16.7042 16.4075 16.5559 16.5558C16.4075 16.7042 16.2069 16.7883 15.9971 16.7901C15.7874 16.7919 15.5853 16.7113 15.4344 16.5656L12 13.1312L8.5656 16.5656C8.41472 16.7113 8.21264 16.7919 8.00288 16.7901C7.79312 16.7883 7.59247 16.7042 7.44415 16.5558C7.29582 16.4075 7.21168 16.2069 7.20986 15.9971C7.20804 15.7873 7.28868 15.5853 7.4344 15.4344L10.8688 12L7.4344 8.56559C7.28442 8.41556 7.20017 8.21212 7.20017 7.99999C7.20017 7.78785 7.28442 7.58441 7.4344 7.43439Z" fill="#535353"/>
<rect x="0.5" y="0.5" width="23" height="23" rx="11.5" stroke="#A3A3A3"/>
</svg>
