<svg width="37" height="27" viewBox="0 0 37 27" fill="none" xmlns="http://www.w3.org/2000/svg">
<path d="M0.5 4.5C0.5 3.30653 0.974106 2.16193 1.81802 1.31802C2.66193 0.474106 3.80653 0 5 0H18.5C19.6935 0 20.8381 0.474106 21.682 1.31802C22.5259 2.16193 23 3.30653 23 4.5V22.5C23 23.6935 22.5259 24.8381 21.682 25.682C20.8381 26.5259 19.6935 27 18.5 27H5C3.80653 27 2.66193 26.5259 1.81802 25.682C0.974106 24.8381 0.5 23.6935 0.5 22.5V4.5ZM28.7443 6.9885C28.3706 7.17523 28.0562 7.4623 27.8365 7.81757C27.6167 8.17283 27.5002 8.58226 27.5 9V18C27.5002 18.4177 27.6167 18.8272 27.8365 19.1824C28.0562 19.5377 28.3706 19.8248 28.7443 20.0115L33.2442 22.2615C33.5872 22.4329 33.9682 22.5138 34.3512 22.4965C34.7342 22.4793 35.1065 22.3644 35.4326 22.1629C35.7588 21.9614 36.028 21.6799 36.2148 21.3451C36.4016 21.0104 36.4998 20.6334 36.5 20.25V6.75C36.4998 6.36662 36.4016 5.98965 36.2148 5.65486C36.028 5.32007 35.7588 5.03857 35.4326 4.83706C35.1065 4.63556 34.7342 4.52073 34.3512 4.50348C33.9682 4.48623 33.5872 4.56713 33.2442 4.7385L28.7443 6.9885Z" fill="#F05252"/>
</svg>
