<svg width="16" height="12" viewBox="0 0 16 12" fill="none" xmlns="http://www.w3.org/2000/svg">
<path d="M0 2C0 1.46957 0.210714 0.960859 0.585786 0.585786C0.960859 0.210714 1.46957 0 2 0H8C8.53043 0 9.03914 0.210714 9.41421 0.585786C9.78929 0.960859 10 1.46957 10 2V10C10 10.5304 9.78929 11.0391 9.41421 11.4142C9.03914 11.7893 8.53043 12 8 12H2C1.46957 12 0.960859 11.7893 0.585786 11.4142C0.210714 11.0391 0 10.5304 0 10V2ZM12.553 3.106C12.3869 3.18899 12.2472 3.31658 12.1496 3.47447C12.0519 3.63237 12.0001 3.81434 12 4V8C12.0001 8.18566 12.0519 8.36763 12.1496 8.52553C12.2472 8.68342 12.3869 8.81101 12.553 8.894L14.553 9.894C14.7054 9.97017 14.8748 10.0061 15.045 9.99845C15.2152 9.99079 15.3806 9.93975 15.5256 9.85019C15.6706 9.76064 15.7902 9.63552 15.8733 9.48673C15.9563 9.33793 15.9999 9.17039 16 9V3C15.9999 2.82961 15.9563 2.66207 15.8733 2.51327C15.7902 2.36448 15.6706 2.23936 15.5256 2.14981C15.3806 2.06025 15.2152 2.00921 15.045 2.00155C14.8748 1.99388 14.7054 2.02983 14.553 2.106L12.553 3.106Z" fill="#535353"/>
</svg>
