<svg width="20" height="21" viewBox="0 0 20 21" fill="none" xmlns="http://www.w3.org/2000/svg">
<path d="M2 6.5C2 5.96957 2.21071 5.46086 2.58579 5.08579C2.96086 4.71071 3.46957 4.5 4 4.5H10C10.5304 4.5 11.0391 4.71071 11.4142 5.08579C11.7893 5.46086 12 5.96957 12 6.5V14.5C12 15.0304 11.7893 15.5391 11.4142 15.9142C11.0391 16.2893 10.5304 16.5 10 16.5H4C3.46957 16.5 2.96086 16.2893 2.58579 15.9142C2.21071 15.5391 2 15.0304 2 14.5V6.5ZM14.553 7.606C14.3869 7.68899 14.2472 7.81658 14.1496 7.97447C14.0519 8.13237 14.0001 8.31434 14 8.5V12.5C14.0001 12.6857 14.0519 12.8676 14.1496 13.0255C14.2472 13.1834 14.3869 13.311 14.553 13.394L16.553 14.394C16.7054 14.4702 16.8748 14.5061 17.045 14.4985C17.2152 14.4908 17.3806 14.4398 17.5256 14.3502C17.6706 14.2606 17.7902 14.1355 17.8733 13.9867C17.9563 13.8379 17.9999 13.6704 18 13.5V7.5C17.9999 7.32961 17.9563 7.16207 17.8733 7.01327C17.7902 6.86448 17.6706 6.73936 17.5256 6.64981C17.3806 6.56025 17.2152 6.50921 17.045 6.50155C16.8748 6.49388 16.7054 6.52983 16.553 6.606L14.553 7.606Z" fill="#111928"/>
</svg>
