<svg width="96" height="96" viewBox="0 0 96 96" fill="none" xmlns="http://www.w3.org/2000/svg">
<path d="M47.9999 0.286255C21.6872 0.286255 0.286133 21.6873 0.286133 48C0.286133 74.3127 21.6872 95.7138 47.9999 95.7138C74.3126 95.7138 95.7136 74.3127 95.7136 48C95.7136 21.6873 74.3126 0.286255 47.9999 0.286255ZM47.9999 87.0598C26.4819 87.0598 8.9401 69.6349 8.9401 48C8.9401 26.3651 26.4819 8.94022 47.9999 8.94022C69.5178 8.94022 87.0597 26.482 87.0597 48C87.0597 69.518 69.5178 87.0598 47.9999 87.0598Z" fill="#FAFAFA"/>
<path d="M38.0597 26.0143L70.1027 44.4917C72.7925 46.012 72.7925 49.9881 70.1027 51.5084L38.0597 69.9858C35.3699 71.5061 31.9785 69.6349 31.9785 66.4774V29.5226C31.9785 26.3651 35.3699 24.494 38.0597 26.0143Z" fill="#FAFAFA"/>
</svg>
