<svg width="12" height="12" viewBox="0 0 12 12" fill="none" xmlns="http://www.w3.org/2000/svg">
<path fill-rule="evenodd" clip-rule="evenodd" d="M2.57582 2.57575C2.68834 2.46327 2.84092 2.40008 3.00002 2.40008C3.15912 2.40008 3.3117 2.46327 3.42422 2.57575L6.00002 5.15155L8.57582 2.57575C8.63117 2.51845 8.69737 2.47274 8.77058 2.44129C8.84378 2.40984 8.92251 2.39329 9.00218 2.3926C9.08185 2.39191 9.16085 2.40709 9.23459 2.43726C9.30833 2.46743 9.37532 2.51198 9.43166 2.56831C9.48799 2.62465 9.53254 2.69164 9.56271 2.76538C9.59288 2.83912 9.60806 2.91812 9.60737 2.99779C9.60668 3.07746 9.59013 3.15619 9.55868 3.22939C9.52723 3.3026 9.48152 3.3688 9.42422 3.42415L6.84842 5.99995L9.42422 8.57575C9.53351 8.68891 9.59399 8.84047 9.59262 8.99779C9.59126 9.15511 9.52815 9.3056 9.41691 9.41684C9.30567 9.52809 9.15518 9.59119 8.99786 9.59256C8.84054 9.59392 8.68898 9.53345 8.57582 9.42415L6.00002 6.84835L3.42422 9.42415C3.31106 9.53345 3.1595 9.59392 3.00218 9.59256C2.84486 9.59119 2.69437 9.52809 2.58313 9.41684C2.47188 9.3056 2.40878 9.15511 2.40741 8.99779C2.40605 8.84047 2.46652 8.68891 2.57582 8.57575L5.15162 5.99995L2.57582 3.42415C2.46334 3.31163 2.40015 3.15905 2.40015 2.99995C2.40015 2.84085 2.46334 2.68827 2.57582 2.57575Z" fill="#FFBF20"/>
</svg>
