<svg width="32" height="24" viewBox="0 0 32 24" fill="none" xmlns="http://www.w3.org/2000/svg">
<g clip-path="url(#clip0_2181_12169)">
<path d="M2 0.5H30C31.104 0.5 32 1.396 32 2.501V21.501C32 22.605 31.104 23.501 30 23.501H2C0.895 23.501 0 22.605 0 21.501V2.501C0 1.396 0.896 0.5 2 0.5V0.5Z" fill="#26A6D1"/>
<path d="M5.16 8.5L2 15.493H5.783L6.252 14.378H7.324L7.793 15.493H11.957V14.642L12.328 15.493H14.482L14.853 14.624V15.493H23.513L24.566 14.407L25.552 15.493L30 15.502L26.83 12.016L30 8.5H25.621L24.596 9.566L23.641 8.5H14.22L13.411 10.305L12.583 8.5H8.808V9.322L8.388 8.5H5.16ZM5.892 9.493H7.736L9.832 14.235V9.493H11.852L13.471 12.893L14.963 9.493H16.973V14.511H15.75L15.74 10.579L13.957 14.511H12.863L11.07 10.579V14.511H8.554L8.077 13.386H5.5L5.024 14.51H3.676L5.892 9.493ZM18.092 9.493H23.065L24.586 11.136L26.156 9.493H27.677L25.366 12.015L27.677 14.508H26.087L24.566 12.846L22.988 14.508H18.092V9.493ZM6.789 10.342L5.94 12.346H7.637L6.789 10.342ZM19.32 10.532V11.448H22.033V12.469H19.32V13.469H22.363L23.777 11.996L22.423 10.531H19.32V10.532Z" fill="white"/>
</g>
<defs>
<clipPath id="clip0_2181_12169">
<rect width="32" height="23" fill="white" transform="translate(0 0.5)"/>
</clipPath>
</defs>
</svg>
