<svg width="32" height="24" viewBox="0 0 32 24" fill="none" xmlns="http://www.w3.org/2000/svg">
<g clip-path="url(#clip0_2181_12172)">
<path d="M2 0.5H30C31.104 0.5 32 1.395 32 2.5V21.5C32 22.604 31.104 23.5 30 23.5H2C0.896 23.5 0 22.604 0 21.5V2.5C0 1.395 0.896 0.5 2 0.5Z" fill="#E4E7E7"/>
<path d="M6.43605 4.49899H3.99805V12.503H6.42305C7.71005 12.503 8.64105 12.216 9.45705 11.579C10.425 10.823 11 9.68199 11 8.50399C11 6.14099 9.12405 4.49899 6.43605 4.49899ZM8.24205 10.012C7.80905 10.348 7.25205 10.492 6.36605 10.492H5.99905V6.50799H6.36605C7.25205 6.50799 7.78805 6.64299 8.24205 6.99399C8.71605 7.35599 8.99905 7.91599 8.99905 8.49399C8.99905 9.07199 8.71605 9.65299 8.24205 10.012ZM12.002 12.502H13.988V4.48499H12.002V12.502ZM18.497 7.58399C17.482 7.25199 17.184 7.03099 17.184 6.61899C17.184 6.13699 17.716 5.76699 18.444 5.76699C18.951 5.76699 19.366 5.95099 19.809 6.38799L20.691 5.36499C19.963 4.80099 19.094 4.51299 18.145 4.51299C16.615 4.51299 15.445 5.45599 15.445 6.70899C15.445 7.76899 15.99 8.30899 17.575 8.81499C18.237 9.02199 18.574 9.15899 18.743 9.25299C19.081 9.44899 19.251 9.72299 19.251 10.045C19.251 10.668 18.691 11.127 17.938 11.127C17.133 11.127 16.484 10.772 16.094 10.104L15.005 11.038C15.781 12.049 16.717 12.5 18.003 12.5C19.756 12.5 20.989 11.463 20.989 9.97899C20.989 8.75999 20.419 8.20799 18.497 7.58399ZM24.006 8.48899C24.006 7.24299 25.011 6.25999 26.29 6.25999C26.938 6.25999 27.432 6.47399 27.998 6.98899L27.997 4.96699C27.33 4.63699 26.779 4.49999 26.124 4.49999C23.818 4.49999 21.97 6.27599 21.97 8.49799C21.97 10.746 23.773 12.486 26.09 12.486C26.745 12.486 27.307 12.361 27.997 12.041L27.998 10.018C27.452 10.525 26.971 10.729 26.352 10.729C24.98 10.729 24.006 9.80299 24.006 8.48899Z" fill="#324D5B"/>
<path d="M30 23.5C31.104 23.5 32 22.604 32 21.5V13.5L14 23.5H30Z" fill="#F4B459"/>
</g>
<defs>
<clipPath id="clip0_2181_12172">
<rect width="32" height="23" fill="white" transform="translate(0 0.5)"/>
</clipPath>
</defs>
</svg>
