<svg width="33" height="21" viewBox="0 0 33 21" fill="none" xmlns="http://www.w3.org/2000/svg">
<g clip-path="url(#clip0_2181_12176)">
<path d="M19.994 10.5C19.994 16.024 15.519 20.5 9.997 20.5C4.475 20.5 0 16.023 0 10.5C0 4.977 4.476 0.5 9.997 0.5C15.518 0.5 19.994 4.977 19.994 10.5Z" fill="#E2574C"/>
<path d="M22.003 0.5C19.761 0.5 17.697 1.247 16.029 2.494L16.037 2.495C16.365 2.812 16.727 3.035 17.006 3.4L14.926 3.433C14.6 3.762 14.303 4.12 14.023 4.492H17.691C17.97 4.827 18.228 5.118 18.462 5.488H13.358C13.171 5.81 12.998 6.141 12.847 6.485H19.043C19.205 6.828 19.35 7.087 19.473 7.45H12.48C12.369 7.795 12.274 8.148 12.202 8.508H19.766C19.84 8.854 19.897 9.174 19.936 9.5H12.052C12.019 9.829 12.002 10.163 12.002 10.5H19.993C19.993 10.854 19.968 11.182 19.932 11.5H12.052C12.086 11.839 12.136 12.172 12.202 12.5H19.754C19.676 12.824 19.586 13.15 19.473 13.488H12.457C12.563 13.83 12.692 14.162 12.833 14.486H19.043C18.871 14.85 18.676 15.141 18.461 15.482H13.34C13.542 15.832 13.765 16.166 14.007 16.486L17.691 16.541C17.377 16.918 16.974 17.145 16.607 17.475C16.627 17.491 16.02 17.473 14.825 17.454C16.643 19.33 19.184 20.5 22.003 20.5C27.526 20.5 32.003 16.023 32.003 10.5C32.003 4.977 27.527 0.5 22.003 0.5Z" fill="#F4B459"/>
</g>
<defs>
<clipPath id="clip0_2181_12176">
<rect width="32.003" height="20" fill="white" transform="translate(0 0.5)"/>
</clipPath>
</defs>
</svg>
