<svg width="32" height="11" viewBox="0 0 32 11" fill="none" xmlns="http://www.w3.org/2000/svg">
<g clip-path="url(#clip0_2181_12166)">
<path d="M13.08 0.510986L11.474 10.505H14.041L15.646 0.510986H13.08ZM20.823 4.58199C19.926 4.13899 19.376 3.83999 19.376 3.38699C19.387 2.97499 19.841 2.55299 20.855 2.55299C21.689 2.53199 22.302 2.72799 22.767 2.92299L23 3.02699L23.349 0.935986C22.842 0.739986 22.038 0.523986 21.045 0.523986C18.51 0.523986 16.725 1.84199 16.714 3.72699C16.693 5.11799 17.992 5.88999 18.964 6.35299C19.957 6.82799 20.295 7.13599 20.295 7.55799C20.284 8.20599 19.492 8.50499 18.753 8.50499C17.729 8.50499 17.179 8.35099 16.344 7.98999L16.006 7.83599L15.647 10.009C16.25 10.277 17.359 10.513 18.51 10.525C21.204 10.525 22.957 9.22699 22.979 7.21799C22.988 6.11599 22.303 5.27199 20.823 4.58199ZM29.93 0.541986H27.944C27.332 0.541986 26.867 0.717986 26.602 1.34599L22.789 10.505H25.483L26.225 8.52199H29.239L29.624 10.513H32L29.93 0.541986ZM26.972 6.52099C27.024 6.52599 28.006 3.28399 28.006 3.28399L28.788 6.52099C28.788 6.52099 27.479 6.52099 26.972 6.52099ZM9.32899 0.510986L6.81399 7.30099L6.53999 5.96199C6.07499 4.41699 4.61699 2.73799 2.98999 1.90399L5.29299 10.495H8.00899L12.045 0.511986H9.32899V0.510986Z" fill="#2394BC"/>
<path d="M5.694 1.8C5.498 1.038 4.873 0.524 4.024 0.513H0.041L0 0.698C3.107 1.464 5.715 3.821 6.561 6.038L5.694 1.8Z" fill="#EFC75E"/>
</g>
<defs>
<clipPath id="clip0_2181_12166">
<rect width="32" height="10.014" fill="white" transform="translate(0 0.5)"/>
</clipPath>
</defs>
</svg>
